<?xml version="1.0" encoding="utf-8" standalone="no"?>
<!DOCTYPE svg PUBLIC "-//W3C//DTD SVG 1.1//EN"
  "http://www.w3.org/Graphics/SVG/1.1/DTD/svg11.dtd">
<!-- Created with matplotlib (https://matplotlib.org/) -->
<svg height="432pt" version="1.1" viewBox="0 0 576 432" width="576pt" xmlns="http://www.w3.org/2000/svg" xmlns:xlink="http://www.w3.org/1999/xlink">
 <defs>
  <style type="text/css">
*{stroke-linecap:butt;stroke-linejoin:round;white-space:pre;}
  </style>
 </defs>
 <g id="figure_1">
  <g id="patch_1">
   <path d="M 0 432 
L 576 432 
L 576 0 
L 0 0 
z
" style="fill:none;"/>
  </g>
  <g id="axes_1">
   <g id="patch_2">
    <path d="M 50.675 147.16303 
L 454.136 147.16303 
L 454.136 26.8 
L 50.675 26.8 
z
" style="fill:none;"/>
   </g>
   <g id="PathCollection_1"/>
   <g id="PathCollection_2"/>
   <g id="patch_3">
    <path clip-path="url(#p9e98983d62)" d="M 57.39935 147.16303 
L 84.29675 147.16303 
L 84.29675 65.520693 
L 57.39935 65.520693 
z
" style="fill:#3274a1;opacity:0.25;"/>
   </g>
   <g id="patch_4">
    <path clip-path="url(#p9e98983d62)" d="M 124.64285 147.16303 
L 151.54025 147.16303 
L 151.54025 99.55769 
L 124.64285 99.55769 
z
" style="fill:#3274a1;opacity:0.25;"/>
   </g>
   <g id="patch_5">
    <path clip-path="url(#p9e98983d62)" d="M 191.88635 147.16303 
L 218.78375 147.16303 
L 218.78375 95.24401 
L 191.88635 95.24401 
z
" style="fill:#3274a1;opacity:0.25;"/>
   </g>
   <g id="patch_6">
    <path clip-path="url(#p9e98983d62)" d="M 259.12985 147.16303 
L 286.02725 147.16303 
L 286.02725 54.683419 
L 259.12985 54.683419 
z
" style="fill:#3274a1;opacity:0.25;"/>
   </g>
   <g id="patch_7">
    <path clip-path="url(#p9e98983d62)" d="M 326.37335 147.16303 
L 353.27075 147.16303 
L 353.27075 49.788049 
L 326.37335 49.788049 
z
" style="fill:#3274a1;opacity:0.25;"/>
   </g>
   <g id="patch_8">
    <path clip-path="url(#p9e98983d62)" d="M 393.61685 147.16303 
L 420.51425 147.16303 
L 420.51425 37.723202 
L 393.61685 37.723202 
z
" style="fill:#3274a1;opacity:0.25;"/>
   </g>
   <g id="patch_9">
    <path clip-path="url(#p9e98983d62)" d="M 84.29675 147.16303 
L 111.19415 147.16303 
L 111.19415 37.066056 
L 84.29675 37.066056 
z
" style="fill:#e1812c;opacity:0.25;"/>
   </g>
   <g id="patch_10">
    <path clip-path="url(#p9e98983d62)" d="M 151.54025 147.16303 
L 178.43765 147.16303 
L 178.43765 75.439258 
L 151.54025 75.439258 
z
" style="fill:#e1812c;opacity:0.25;"/>
   </g>
   <g id="patch_11">
    <path clip-path="url(#p9e98983d62)" d="M 218.78375 147.16303 
L 245.68115 147.16303 
L 245.68115 64.406023 
L 218.78375 64.406023 
z
" style="fill:#e1812c;opacity:0.25;"/>
   </g>
   <g id="patch_12">
    <path clip-path="url(#p9e98983d62)" d="M 286.02725 147.16303 
L 312.92465 147.16303 
L 312.92465 42.700785 
L 286.02725 42.700785 
z
" style="fill:#e1812c;opacity:0.25;"/>
   </g>
   <g id="patch_13">
    <path clip-path="url(#p9e98983d62)" d="M 353.27075 147.16303 
L 380.16815 147.16303 
L 380.16815 37.872143 
L 353.27075 37.872143 
z
" style="fill:#e1812c;opacity:0.25;"/>
   </g>
   <g id="patch_14">
    <path clip-path="url(#p9e98983d62)" d="M 420.51425 147.16303 
L 447.41165 147.16303 
L 447.41165 34.896123 
L 420.51425 34.896123 
z
" style="fill:#e1812c;opacity:0.25;"/>
   </g>
   <g id="matplotlib.axis_1">
    <g id="xtick_1">
     <g id="line2d_1">
      <defs>
       <path d="M 0 0 
L 0 3.5 
" id="mb12222fc48" style="stroke:#000000;stroke-width:0.8;"/>
      </defs>
      <g>
       <use style="stroke:#000000;stroke-width:0.8;" x="84.29675" xlink:href="#mb12222fc48" y="147.16303"/>
      </g>
     </g>
     <g id="text_1">
      <!-- TPE only -->
      <defs>
       <path d="M -0.296875 72.90625 
L 61.375 72.90625 
L 61.375 64.59375 
L 35.5 64.59375 
L 35.5 0 
L 25.59375 0 
L 25.59375 64.59375 
L -0.296875 64.59375 
z
" id="DejaVuSans-84"/>
       <path d="M 19.671875 64.796875 
L 19.671875 37.40625 
L 32.078125 37.40625 
Q 38.96875 37.40625 42.71875 40.96875 
Q 46.484375 44.53125 46.484375 51.125 
Q 46.484375 57.671875 42.71875 61.234375 
Q 38.96875 64.796875 32.078125 64.796875 
z
M 9.8125 72.90625 
L 32.078125 72.90625 
Q 44.34375 72.90625 50.609375 67.359375 
Q 56.890625 61.8125 56.890625 51.125 
Q 56.890625 40.328125 50.609375 34.8125 
Q 44.34375 29.296875 32.078125 29.296875 
L 19.671875 29.296875 
L 19.671875 0 
L 9.8125 0 
z
" id="DejaVuSans-80"/>
       <path d="M 9.8125 72.90625 
L 55.90625 72.90625 
L 55.90625 64.59375 
L 19.671875 64.59375 
L 19.671875 43.015625 
L 54.390625 43.015625 
L 54.390625 34.71875 
L 19.671875 34.71875 
L 19.671875 8.296875 
L 56.78125 8.296875 
L 56.78125 0 
L 9.8125 0 
z
" id="DejaVuSans-69"/>
       <path id="DejaVuSans-32"/>
       <path d="M 30.609375 48.390625 
Q 23.390625 48.390625 19.1875 42.75 
Q 14.984375 37.109375 14.984375 27.296875 
Q 14.984375 17.484375 19.15625 11.84375 
Q 23.34375 6.203125 30.609375 6.203125 
Q 37.796875 6.203125 41.984375 11.859375 
Q 46.1875 17.53125 46.1875 27.296875 
Q 46.1875 37.015625 41.984375 42.703125 
Q 37.796875 48.390625 30.609375 48.390625 
z
M 30.609375 56 
Q 42.328125 56 49.015625 48.375 
Q 55.71875 40.765625 55.71875 27.296875 
Q 55.71875 13.875 49.015625 6.21875 
Q 42.328125 -1.421875 30.609375 -1.421875 
Q 18.84375 -1.421875 12.171875 6.21875 
Q 5.515625 13.875 5.515625 27.296875 
Q 5.515625 40.765625 12.171875 48.375 
Q 18.84375 56 30.609375 56 
z
" id="DejaVuSans-111"/>
       <path d="M 54.890625 33.015625 
L 54.890625 0 
L 45.90625 0 
L 45.90625 32.71875 
Q 45.90625 40.484375 42.875 44.328125 
Q 39.84375 48.1875 33.796875 48.1875 
Q 26.515625 48.1875 22.3125 43.546875 
Q 18.109375 38.921875 18.109375 30.90625 
L 18.109375 0 
L 9.078125 0 
L 9.078125 54.6875 
L 18.109375 54.6875 
L 18.109375 46.1875 
Q 21.34375 51.125 25.703125 53.5625 
Q 30.078125 56 35.796875 56 
Q 45.21875 56 50.046875 50.171875 
Q 54.890625 44.34375 54.890625 33.015625 
z
" id="DejaVuSans-110"/>
       <path d="M 9.421875 75.984375 
L 18.40625 75.984375 
L 18.40625 0 
L 9.421875 0 
z
" id="DejaVuSans-108"/>
       <path d="M 32.171875 -5.078125 
Q 28.375 -14.84375 24.75 -17.8125 
Q 21.140625 -20.796875 15.09375 -20.796875 
L 7.90625 -20.796875 
L 7.90625 -13.28125 
L 13.1875 -13.28125 
Q 16.890625 -13.28125 18.9375 -11.515625 
Q 21 -9.765625 23.484375 -3.21875 
L 25.09375 0.875 
L 2.984375 54.6875 
L 12.5 54.6875 
L 29.59375 11.921875 
L 46.6875 54.6875 
L 56.203125 54.6875 
z
" id="DejaVuSans-121"/>
      </defs>
      <g transform="translate(71.120257 189.791268)rotate(-45)scale(0.1 -0.1)">
       <use xlink:href="#DejaVuSans-84"/>
       <use x="61.083984" xlink:href="#DejaVuSans-80"/>
       <use x="121.386719" xlink:href="#DejaVuSans-69"/>
       <use x="184.570312" xlink:href="#DejaVuSans-32"/>
       <use x="216.357422" xlink:href="#DejaVuSans-111"/>
       <use x="277.539062" xlink:href="#DejaVuSans-110"/>
       <use x="340.917969" xlink:href="#DejaVuSans-108"/>
       <use x="368.701172" xlink:href="#DejaVuSans-121"/>
      </g>
     </g>
    </g>
    <g id="xtick_2">
     <g id="line2d_2">
      <g>
       <use style="stroke:#000000;stroke-width:0.8;" x="151.54025" xlink:href="#mb12222fc48" y="147.16303"/>
      </g>
     </g>
     <g id="text_2">
      <!-- 1 -->
      <defs>
       <path d="M 12.40625 8.296875 
L 28.515625 8.296875 
L 28.515625 63.921875 
L 10.984375 60.40625 
L 10.984375 69.390625 
L 28.421875 72.90625 
L 38.28125 72.90625 
L 38.28125 8.296875 
L 54.390625 8.296875 
L 54.390625 0 
L 12.40625 0 
z
" id="DejaVuSans-49"/>
      </defs>
      <g transform="translate(151.241939 164.034903)rotate(-45)scale(0.1 -0.1)">
       <use xlink:href="#DejaVuSans-49"/>
      </g>
     </g>
    </g>
    <g id="xtick_3">
     <g id="line2d_3">
      <g>
       <use style="stroke:#000000;stroke-width:0.8;" x="218.78375" xlink:href="#mb12222fc48" y="147.16303"/>
      </g>
     </g>
     <g id="text_3">
      <!-- 1.5 -->
      <defs>
       <path d="M 10.6875 12.40625 
L 21 12.40625 
L 21 0 
L 10.6875 0 
z
" id="DejaVuSans-46"/>
       <path d="M 10.796875 72.90625 
L 49.515625 72.90625 
L 49.515625 64.59375 
L 19.828125 64.59375 
L 19.828125 46.734375 
Q 21.96875 47.46875 24.109375 47.828125 
Q 26.265625 48.1875 28.421875 48.1875 
Q 40.625 48.1875 47.75 41.5 
Q 54.890625 34.8125 54.890625 23.390625 
Q 54.890625 11.625 47.5625 5.09375 
Q 40.234375 -1.421875 26.90625 -1.421875 
Q 22.3125 -1.421875 17.546875 -0.640625 
Q 12.796875 0.140625 7.71875 1.703125 
L 7.71875 11.625 
Q 12.109375 9.234375 16.796875 8.0625 
Q 21.484375 6.890625 26.703125 6.890625 
Q 35.15625 6.890625 40.078125 11.328125 
Q 45.015625 15.765625 45.015625 23.390625 
Q 45.015625 31 40.078125 35.4375 
Q 35.15625 39.890625 26.703125 39.890625 
Q 22.75 39.890625 18.8125 39.015625 
Q 14.890625 38.140625 10.796875 36.28125 
z
" id="DejaVuSans-53"/>
      </defs>
      <g transform="translate(215.112319 170.781144)rotate(-45)scale(0.1 -0.1)">
       <use xlink:href="#DejaVuSans-49"/>
       <use x="63.623047" xlink:href="#DejaVuSans-46"/>
       <use x="95.410156" xlink:href="#DejaVuSans-53"/>
      </g>
     </g>
    </g>
    <g id="xtick_4">
     <g id="line2d_4">
      <g>
       <use style="stroke:#000000;stroke-width:0.8;" x="286.02725" xlink:href="#mb12222fc48" y="147.16303"/>
      </g>
     </g>
     <g id="text_4">
      <!-- 2 -->
      <defs>
       <path d="M 19.1875 8.296875 
L 53.609375 8.296875 
L 53.609375 0 
L 7.328125 0 
L 7.328125 8.296875 
Q 12.9375 14.109375 22.625 23.890625 
Q 32.328125 33.6875 34.8125 36.53125 
Q 39.546875 41.84375 41.421875 45.53125 
Q 43.3125 49.21875 43.3125 52.78125 
Q 43.3125 58.59375 39.234375 62.25 
Q 35.15625 65.921875 28.609375 65.921875 
Q 23.96875 65.921875 18.8125 64.3125 
Q 13.671875 62.703125 7.8125 59.421875 
L 7.8125 69.390625 
Q 13.765625 71.78125 18.9375 73 
Q 24.125 74.21875 28.421875 74.21875 
Q 39.75 74.21875 46.484375 68.546875 
Q 53.21875 62.890625 53.21875 53.421875 
Q 53.21875 48.921875 51.53125 44.890625 
Q 49.859375 40.875 45.40625 35.40625 
Q 44.1875 33.984375 37.640625 27.21875 
Q 31.109375 20.453125 19.1875 8.296875 
z
" id="DejaVuSans-50"/>
      </defs>
      <g transform="translate(285.728939 164.034903)rotate(-45)scale(0.1 -0.1)">
       <use xlink:href="#DejaVuSans-50"/>
      </g>
     </g>
    </g>
    <g id="xtick_5">
     <g id="line2d_5">
      <g>
       <use style="stroke:#000000;stroke-width:0.8;" x="353.27075" xlink:href="#mb12222fc48" y="147.16303"/>
      </g>
     </g>
     <g id="text_5">
      <!-- 3 -->
      <defs>
       <path d="M 40.578125 39.3125 
Q 47.65625 37.796875 51.625 33 
Q 55.609375 28.21875 55.609375 21.1875 
Q 55.609375 10.40625 48.1875 4.484375 
Q 40.765625 -1.421875 27.09375 -1.421875 
Q 22.515625 -1.421875 17.65625 -0.515625 
Q 12.796875 0.390625 7.625 2.203125 
L 7.625 11.71875 
Q 11.71875 9.328125 16.59375 8.109375 
Q 21.484375 6.890625 26.8125 6.890625 
Q 36.078125 6.890625 40.9375 10.546875 
Q 45.796875 14.203125 45.796875 21.1875 
Q 45.796875 27.640625 41.28125 31.265625 
Q 36.765625 34.90625 28.71875 34.90625 
L 20.21875 34.90625 
L 20.21875 43.015625 
L 29.109375 43.015625 
Q 36.375 43.015625 40.234375 45.921875 
Q 44.09375 48.828125 44.09375 54.296875 
Q 44.09375 59.90625 40.109375 62.90625 
Q 36.140625 65.921875 28.71875 65.921875 
Q 24.65625 65.921875 20.015625 65.03125 
Q 15.375 64.15625 9.8125 62.3125 
L 9.8125 71.09375 
Q 15.4375 72.65625 20.34375 73.4375 
Q 25.25 74.21875 29.59375 74.21875 
Q 40.828125 74.21875 47.359375 69.109375 
Q 53.90625 64.015625 53.90625 55.328125 
Q 53.90625 49.265625 50.4375 45.09375 
Q 46.96875 40.921875 40.578125 39.3125 
z
" id="DejaVuSans-51"/>
      </defs>
      <g transform="translate(352.972439 164.034903)rotate(-45)scale(0.1 -0.1)">
       <use xlink:href="#DejaVuSans-51"/>
      </g>
     </g>
    </g>
    <g id="xtick_6">
     <g id="line2d_6">
      <g>
       <use style="stroke:#000000;stroke-width:0.8;" x="420.51425" xlink:href="#mb12222fc48" y="147.16303"/>
      </g>
     </g>
     <g id="text_6">
      <!-- 4 -->
      <defs>
       <path d="M 37.796875 64.3125 
L 12.890625 25.390625 
L 37.796875 25.390625 
z
M 35.203125 72.90625 
L 47.609375 72.90625 
L 47.609375 25.390625 
L 58.015625 25.390625 
L 58.015625 17.1875 
L 47.609375 17.1875 
L 47.609375 0 
L 37.796875 0 
L 37.796875 17.1875 
L 4.890625 17.1875 
L 4.890625 26.703125 
z
" id="DejaVuSans-52"/>
      </defs>
      <g transform="translate(420.215939 164.034903)rotate(-45)scale(0.1 -0.1)">
       <use xlink:href="#DejaVuSans-52"/>
      </g>
     </g>
    </g>
    <g id="text_7">
     <!-- Density (x 10$^5$) -->
     <defs>
      <path d="M 19.671875 64.796875 
L 19.671875 8.109375 
L 31.59375 8.109375 
Q 46.6875 8.109375 53.6875 14.9375 
Q 60.6875 21.78125 60.6875 36.53125 
Q 60.6875 51.171875 53.6875 57.984375 
Q 46.6875 64.796875 31.59375 64.796875 
z
M 9.8125 72.90625 
L 30.078125 72.90625 
Q 51.265625 72.90625 61.171875 64.09375 
Q 71.09375 55.28125 71.09375 36.53125 
Q 71.09375 17.671875 61.125 8.828125 
Q 51.171875 0 30.078125 0 
L 9.8125 0 
z
" id="DejaVuSans-68"/>
      <path d="M 56.203125 29.59375 
L 56.203125 25.203125 
L 14.890625 25.203125 
Q 15.484375 15.921875 20.484375 11.0625 
Q 25.484375 6.203125 34.421875 6.203125 
Q 39.59375 6.203125 44.453125 7.46875 
Q 49.3125 8.734375 54.109375 11.28125 
L 54.109375 2.78125 
Q 49.265625 0.734375 44.1875 -0.34375 
Q 39.109375 -1.421875 33.890625 -1.421875 
Q 20.796875 -1.421875 13.15625 6.1875 
Q 5.515625 13.8125 5.515625 26.8125 
Q 5.515625 40.234375 12.765625 48.109375 
Q 20.015625 56 32.328125 56 
Q 43.359375 56 49.78125 48.890625 
Q 56.203125 41.796875 56.203125 29.59375 
z
M 47.21875 32.234375 
Q 47.125 39.59375 43.09375 43.984375 
Q 39.0625 48.390625 32.421875 48.390625 
Q 24.90625 48.390625 20.390625 44.140625 
Q 15.875 39.890625 15.1875 32.171875 
z
" id="DejaVuSans-101"/>
      <path d="M 44.28125 53.078125 
L 44.28125 44.578125 
Q 40.484375 46.53125 36.375 47.5 
Q 32.28125 48.484375 27.875 48.484375 
Q 21.1875 48.484375 17.84375 46.4375 
Q 14.5 44.390625 14.5 40.28125 
Q 14.5 37.15625 16.890625 35.375 
Q 19.28125 33.59375 26.515625 31.984375 
L 29.59375 31.296875 
Q 39.15625 29.25 43.1875 25.515625 
Q 47.21875 21.78125 47.21875 15.09375 
Q 47.21875 7.46875 41.1875 3.015625 
Q 35.15625 -1.421875 24.609375 -1.421875 
Q 20.21875 -1.421875 15.453125 -0.5625 
Q 10.6875 0.296875 5.421875 2 
L 5.421875 11.28125 
Q 10.40625 8.6875 15.234375 7.390625 
Q 20.0625 6.109375 24.8125 6.109375 
Q 31.15625 6.109375 34.5625 8.28125 
Q 37.984375 10.453125 37.984375 14.40625 
Q 37.984375 18.0625 35.515625 20.015625 
Q 33.0625 21.96875 24.703125 23.78125 
L 21.578125 24.515625 
Q 13.234375 26.265625 9.515625 29.90625 
Q 5.8125 33.546875 5.8125 39.890625 
Q 5.8125 47.609375 11.28125 51.796875 
Q 16.75 56 26.8125 56 
Q 31.78125 56 36.171875 55.265625 
Q 40.578125 54.546875 44.28125 53.078125 
z
" id="DejaVuSans-115"/>
      <path d="M 9.421875 54.6875 
L 18.40625 54.6875 
L 18.40625 0 
L 9.421875 0 
z
M 9.421875 75.984375 
L 18.40625 75.984375 
L 18.40625 64.59375 
L 9.421875 64.59375 
z
" id="DejaVuSans-105"/>
      <path d="M 18.3125 70.21875 
L 18.3125 54.6875 
L 36.8125 54.6875 
L 36.8125 47.703125 
L 18.3125 47.703125 
L 18.3125 18.015625 
Q 18.3125 11.328125 20.140625 9.421875 
Q 21.96875 7.515625 27.59375 7.515625 
L 36.8125 7.515625 
L 36.8125 0 
L 27.59375 0 
Q 17.1875 0 13.234375 3.875 
Q 9.28125 7.765625 9.28125 18.015625 
L 9.28125 47.703125 
L 2.6875 47.703125 
L 2.6875 54.6875 
L 9.28125 54.6875 
L 9.28125 70.21875 
z
" id="DejaVuSans-116"/>
      <path d="M 31 75.875 
Q 24.46875 64.65625 21.28125 53.65625 
Q 18.109375 42.671875 18.109375 31.390625 
Q 18.109375 20.125 21.3125 9.0625 
Q 24.515625 -2 31 -13.1875 
L 23.1875 -13.1875 
Q 15.875 -1.703125 12.234375 9.375 
Q 8.59375 20.453125 8.59375 31.390625 
Q 8.59375 42.28125 12.203125 53.3125 
Q 15.828125 64.359375 23.1875 75.875 
z
" id="DejaVuSans-40"/>
      <path d="M 54.890625 54.6875 
L 35.109375 28.078125 
L 55.90625 0 
L 45.3125 0 
L 29.390625 21.484375 
L 13.484375 0 
L 2.875 0 
L 24.125 28.609375 
L 4.6875 54.6875 
L 15.28125 54.6875 
L 29.78125 35.203125 
L 44.28125 54.6875 
z
" id="DejaVuSans-120"/>
      <path d="M 31.78125 66.40625 
Q 24.171875 66.40625 20.328125 58.90625 
Q 16.5 51.421875 16.5 36.375 
Q 16.5 21.390625 20.328125 13.890625 
Q 24.171875 6.390625 31.78125 6.390625 
Q 39.453125 6.390625 43.28125 13.890625 
Q 47.125 21.390625 47.125 36.375 
Q 47.125 51.421875 43.28125 58.90625 
Q 39.453125 66.40625 31.78125 66.40625 
z
M 31.78125 74.21875 
Q 44.046875 74.21875 50.515625 64.515625 
Q 56.984375 54.828125 56.984375 36.375 
Q 56.984375 17.96875 50.515625 8.265625 
Q 44.046875 -1.421875 31.78125 -1.421875 
Q 19.53125 -1.421875 13.0625 8.265625 
Q 6.59375 17.96875 6.59375 36.375 
Q 6.59375 54.828125 13.0625 64.515625 
Q 19.53125 74.21875 31.78125 74.21875 
z
" id="DejaVuSans-48"/>
      <path d="M 8.015625 75.875 
L 15.828125 75.875 
Q 23.140625 64.359375 26.78125 53.3125 
Q 30.421875 42.28125 30.421875 31.390625 
Q 30.421875 20.453125 26.78125 9.375 
Q 23.140625 -1.703125 15.828125 -13.1875 
L 8.015625 -13.1875 
Q 14.5 -2 17.703125 9.0625 
Q 20.90625 20.125 20.90625 31.390625 
Q 20.90625 42.671875 17.703125 53.65625 
Q 14.5 64.65625 8.015625 75.875 
z
" id="DejaVuSans-41"/>
     </defs>
     <g transform="translate(214.5555 204.261829)scale(0.1 -0.1)">
      <use transform="translate(0 0.684375)" xlink:href="#DejaVuSans-68"/>
      <use transform="translate(77.001953 0.684375)" xlink:href="#DejaVuSans-101"/>
      <use transform="translate(138.525391 0.684375)" xlink:href="#DejaVuSans-110"/>
      <use transform="translate(201.904297 0.684375)" xlink:href="#DejaVuSans-115"/>
      <use transform="translate(254.003906 0.684375)" xlink:href="#DejaVuSans-105"/>
      <use transform="translate(281.787109 0.684375)" xlink:href="#DejaVuSans-116"/>
      <use transform="translate(320.996094 0.684375)" xlink:href="#DejaVuSans-121"/>
      <use transform="translate(380.175781 0.684375)" xlink:href="#DejaVuSans-32"/>
      <use transform="translate(411.962891 0.684375)" xlink:href="#DejaVuSans-40"/>
      <use transform="translate(450.976562 0.684375)" xlink:href="#DejaVuSans-120"/>
      <use transform="translate(510.15625 0.684375)" xlink:href="#DejaVuSans-32"/>
      <use transform="translate(541.943359 0.684375)" xlink:href="#DejaVuSans-49"/>
      <use transform="translate(605.566406 0.684375)" xlink:href="#DejaVuSans-48"/>
      <use transform="translate(670.146484 38.965625)scale(0.7)" xlink:href="#DejaVuSans-53"/>
      <use transform="translate(717.416992 0.684375)" xlink:href="#DejaVuSans-41"/>
     </g>
    </g>
   </g>
   <g id="matplotlib.axis_2">
    <g id="ytick_1">
     <g id="line2d_7">
      <defs>
       <path d="M 0 0 
L -3.5 0 
" id="ma6944fd4fd" style="stroke:#000000;stroke-width:0.8;"/>
      </defs>
      <g>
       <use style="stroke:#000000;stroke-width:0.8;" x="50.675" xlink:href="#ma6944fd4fd" y="147.16303"/>
      </g>
     </g>
     <g id="text_8">
      <!-- 0 -->
      <g transform="translate(37.3125 150.962249)scale(0.1 -0.1)">
       <use xlink:href="#DejaVuSans-48"/>
      </g>
     </g>
    </g>
    <g id="ytick_2">
     <g id="line2d_8">
      <g>
       <use style="stroke:#000000;stroke-width:0.8;" x="50.675" xlink:href="#ma6944fd4fd" y="124.638753"/>
      </g>
     </g>
     <g id="text_9">
      <!-- 20 -->
      <g transform="translate(30.95 128.437972)scale(0.1 -0.1)">
       <use xlink:href="#DejaVuSans-50"/>
       <use x="63.623047" xlink:href="#DejaVuSans-48"/>
      </g>
     </g>
    </g>
    <g id="ytick_3">
     <g id="line2d_9">
      <g>
       <use style="stroke:#000000;stroke-width:0.8;" x="50.675" xlink:href="#ma6944fd4fd" y="102.114477"/>
      </g>
     </g>
     <g id="text_10">
      <!-- 40 -->
      <g transform="translate(30.95 105.913696)scale(0.1 -0.1)">
       <use xlink:href="#DejaVuSans-52"/>
       <use x="63.623047" xlink:href="#DejaVuSans-48"/>
      </g>
     </g>
    </g>
    <g id="ytick_4">
     <g id="line2d_10">
      <g>
       <use style="stroke:#000000;stroke-width:0.8;" x="50.675" xlink:href="#ma6944fd4fd" y="79.5902"/>
      </g>
     </g>
     <g id="text_11">
      <!-- 60 -->
      <defs>
       <path d="M 33.015625 40.375 
Q 26.375 40.375 22.484375 35.828125 
Q 18.609375 31.296875 18.609375 23.390625 
Q 18.609375 15.53125 22.484375 10.953125 
Q 26.375 6.390625 33.015625 6.390625 
Q 39.65625 6.390625 43.53125 10.953125 
Q 47.40625 15.53125 47.40625 23.390625 
Q 47.40625 31.296875 43.53125 35.828125 
Q 39.65625 40.375 33.015625 40.375 
z
M 52.59375 71.296875 
L 52.59375 62.3125 
Q 48.875 64.0625 45.09375 64.984375 
Q 41.3125 65.921875 37.59375 65.921875 
Q 27.828125 65.921875 22.671875 59.328125 
Q 17.53125 52.734375 16.796875 39.40625 
Q 19.671875 43.65625 24.015625 45.921875 
Q 28.375 48.1875 33.59375 48.1875 
Q 44.578125 48.1875 50.953125 41.515625 
Q 57.328125 34.859375 57.328125 23.390625 
Q 57.328125 12.15625 50.6875 5.359375 
Q 44.046875 -1.421875 33.015625 -1.421875 
Q 20.359375 -1.421875 13.671875 8.265625 
Q 6.984375 17.96875 6.984375 36.375 
Q 6.984375 53.65625 15.1875 63.9375 
Q 23.390625 74.21875 37.203125 74.21875 
Q 40.921875 74.21875 44.703125 73.484375 
Q 48.484375 72.75 52.59375 71.296875 
z
" id="DejaVuSans-54"/>
      </defs>
      <g transform="translate(30.95 83.389419)scale(0.1 -0.1)">
       <use xlink:href="#DejaVuSans-54"/>
       <use x="63.623047" xlink:href="#DejaVuSans-48"/>
      </g>
     </g>
    </g>
    <g id="ytick_5">
     <g id="line2d_11">
      <g>
       <use style="stroke:#000000;stroke-width:0.8;" x="50.675" xlink:href="#ma6944fd4fd" y="57.065924"/>
      </g>
     </g>
     <g id="text_12">
      <!-- 80 -->
      <defs>
       <path d="M 31.78125 34.625 
Q 24.75 34.625 20.71875 30.859375 
Q 16.703125 27.09375 16.703125 20.515625 
Q 16.703125 13.921875 20.71875 10.15625 
Q 24.75 6.390625 31.78125 6.390625 
Q 38.8125 6.390625 42.859375 10.171875 
Q 46.921875 13.96875 46.921875 20.515625 
Q 46.921875 27.09375 42.890625 30.859375 
Q 38.875 34.625 31.78125 34.625 
z
M 21.921875 38.8125 
Q 15.578125 40.375 12.03125 44.71875 
Q 8.5 49.078125 8.5 55.328125 
Q 8.5 64.0625 14.71875 69.140625 
Q 20.953125 74.21875 31.78125 74.21875 
Q 42.671875 74.21875 48.875 69.140625 
Q 55.078125 64.0625 55.078125 55.328125 
Q 55.078125 49.078125 51.53125 44.71875 
Q 48 40.375 41.703125 38.8125 
Q 48.828125 37.15625 52.796875 32.3125 
Q 56.78125 27.484375 56.78125 20.515625 
Q 56.78125 9.90625 50.3125 4.234375 
Q 43.84375 -1.421875 31.78125 -1.421875 
Q 19.734375 -1.421875 13.25 4.234375 
Q 6.78125 9.90625 6.78125 20.515625 
Q 6.78125 27.484375 10.78125 32.3125 
Q 14.796875 37.15625 21.921875 38.8125 
z
M 18.3125 54.390625 
Q 18.3125 48.734375 21.84375 45.5625 
Q 25.390625 42.390625 31.78125 42.390625 
Q 38.140625 42.390625 41.71875 45.5625 
Q 45.3125 48.734375 45.3125 54.390625 
Q 45.3125 60.0625 41.71875 63.234375 
Q 38.140625 66.40625 31.78125 66.40625 
Q 25.390625 66.40625 21.84375 63.234375 
Q 18.3125 60.0625 18.3125 54.390625 
z
" id="DejaVuSans-56"/>
      </defs>
      <g transform="translate(30.95 60.865143)scale(0.1 -0.1)">
       <use xlink:href="#DejaVuSans-56"/>
       <use x="63.623047" xlink:href="#DejaVuSans-48"/>
      </g>
     </g>
    </g>
    <g id="ytick_6">
     <g id="line2d_12">
      <g>
       <use style="stroke:#000000;stroke-width:0.8;" x="50.675" xlink:href="#ma6944fd4fd" y="34.541647"/>
      </g>
     </g>
     <g id="text_13">
      <!-- 100 -->
      <g transform="translate(24.5875 38.340866)scale(0.1 -0.1)">
       <use xlink:href="#DejaVuSans-49"/>
       <use x="63.623047" xlink:href="#DejaVuSans-48"/>
       <use x="127.246094" xlink:href="#DejaVuSans-48"/>
      </g>
     </g>
    </g>
    <g id="text_14">
     <!-- Confluency (%) -->
     <defs>
      <path d="M 64.40625 67.28125 
L 64.40625 56.890625 
Q 59.421875 61.53125 53.78125 63.8125 
Q 48.140625 66.109375 41.796875 66.109375 
Q 29.296875 66.109375 22.65625 58.46875 
Q 16.015625 50.828125 16.015625 36.375 
Q 16.015625 21.96875 22.65625 14.328125 
Q 29.296875 6.6875 41.796875 6.6875 
Q 48.140625 6.6875 53.78125 8.984375 
Q 59.421875 11.28125 64.40625 15.921875 
L 64.40625 5.609375 
Q 59.234375 2.09375 53.4375 0.328125 
Q 47.65625 -1.421875 41.21875 -1.421875 
Q 24.65625 -1.421875 15.125 8.703125 
Q 5.609375 18.84375 5.609375 36.375 
Q 5.609375 53.953125 15.125 64.078125 
Q 24.65625 74.21875 41.21875 74.21875 
Q 47.75 74.21875 53.53125 72.484375 
Q 59.328125 70.75 64.40625 67.28125 
z
" id="DejaVuSans-67"/>
      <path d="M 37.109375 75.984375 
L 37.109375 68.5 
L 28.515625 68.5 
Q 23.6875 68.5 21.796875 66.546875 
Q 19.921875 64.59375 19.921875 59.515625 
L 19.921875 54.6875 
L 34.71875 54.6875 
L 34.71875 47.703125 
L 19.921875 47.703125 
L 19.921875 0 
L 10.890625 0 
L 10.890625 47.703125 
L 2.296875 47.703125 
L 2.296875 54.6875 
L 10.890625 54.6875 
L 10.890625 58.5 
Q 10.890625 67.625 15.140625 71.796875 
Q 19.390625 75.984375 28.609375 75.984375 
z
" id="DejaVuSans-102"/>
      <path d="M 8.5 21.578125 
L 8.5 54.6875 
L 17.484375 54.6875 
L 17.484375 21.921875 
Q 17.484375 14.15625 20.5 10.265625 
Q 23.53125 6.390625 29.59375 6.390625 
Q 36.859375 6.390625 41.078125 11.03125 
Q 45.3125 15.671875 45.3125 23.6875 
L 45.3125 54.6875 
L 54.296875 54.6875 
L 54.296875 0 
L 45.3125 0 
L 45.3125 8.40625 
Q 42.046875 3.421875 37.71875 1 
Q 33.40625 -1.421875 27.6875 -1.421875 
Q 18.265625 -1.421875 13.375 4.4375 
Q 8.5 10.296875 8.5 21.578125 
z
M 31.109375 56 
z
" id="DejaVuSans-117"/>
      <path d="M 48.78125 52.59375 
L 48.78125 44.1875 
Q 44.96875 46.296875 41.140625 47.34375 
Q 37.3125 48.390625 33.40625 48.390625 
Q 24.65625 48.390625 19.8125 42.84375 
Q 14.984375 37.3125 14.984375 27.296875 
Q 14.984375 17.28125 19.8125 11.734375 
Q 24.65625 6.203125 33.40625 6.203125 
Q 37.3125 6.203125 41.140625 7.25 
Q 44.96875 8.296875 48.78125 10.40625 
L 48.78125 2.09375 
Q 45.015625 0.34375 40.984375 -0.53125 
Q 36.96875 -1.421875 32.421875 -1.421875 
Q 20.0625 -1.421875 12.78125 6.34375 
Q 5.515625 14.109375 5.515625 27.296875 
Q 5.515625 40.671875 12.859375 48.328125 
Q 20.21875 56 33.015625 56 
Q 37.15625 56 41.109375 55.140625 
Q 45.0625 54.296875 48.78125 52.59375 
z
" id="DejaVuSans-99"/>
      <path d="M 72.703125 32.078125 
Q 68.453125 32.078125 66.03125 28.46875 
Q 63.625 24.859375 63.625 18.40625 
Q 63.625 12.0625 66.03125 8.421875 
Q 68.453125 4.78125 72.703125 4.78125 
Q 76.859375 4.78125 79.265625 8.421875 
Q 81.6875 12.0625 81.6875 18.40625 
Q 81.6875 24.8125 79.265625 28.4375 
Q 76.859375 32.078125 72.703125 32.078125 
z
M 72.703125 38.28125 
Q 80.421875 38.28125 84.953125 32.90625 
Q 89.5 27.546875 89.5 18.40625 
Q 89.5 9.28125 84.9375 3.921875 
Q 80.375 -1.421875 72.703125 -1.421875 
Q 64.890625 -1.421875 60.34375 3.921875 
Q 55.8125 9.28125 55.8125 18.40625 
Q 55.8125 27.59375 60.375 32.9375 
Q 64.9375 38.28125 72.703125 38.28125 
z
M 22.3125 68.015625 
Q 18.109375 68.015625 15.6875 64.375 
Q 13.28125 60.75 13.28125 54.390625 
Q 13.28125 47.953125 15.671875 44.328125 
Q 18.0625 40.71875 22.3125 40.71875 
Q 26.5625 40.71875 28.96875 44.328125 
Q 31.390625 47.953125 31.390625 54.390625 
Q 31.390625 60.6875 28.953125 64.34375 
Q 26.515625 68.015625 22.3125 68.015625 
z
M 66.40625 74.21875 
L 74.21875 74.21875 
L 28.609375 -1.421875 
L 20.796875 -1.421875 
z
M 22.3125 74.21875 
Q 30.03125 74.21875 34.609375 68.875 
Q 39.203125 63.53125 39.203125 54.390625 
Q 39.203125 45.171875 34.640625 39.84375 
Q 30.078125 34.515625 22.3125 34.515625 
Q 14.546875 34.515625 10.03125 39.859375 
Q 5.515625 45.21875 5.515625 54.390625 
Q 5.515625 63.484375 10.046875 68.84375 
Q 14.59375 74.21875 22.3125 74.21875 
z
" id="DejaVuSans-37"/>
     </defs>
     <g transform="translate(18.507812 125.214327)rotate(-90)scale(0.1 -0.1)">
      <use xlink:href="#DejaVuSans-67"/>
      <use x="69.824219" xlink:href="#DejaVuSans-111"/>
      <use x="131.005859" xlink:href="#DejaVuSans-110"/>
      <use x="194.384766" xlink:href="#DejaVuSans-102"/>
      <use x="229.589844" xlink:href="#DejaVuSans-108"/>
      <use x="257.373047" xlink:href="#DejaVuSans-117"/>
      <use x="320.751953" xlink:href="#DejaVuSans-101"/>
      <use x="382.275391" xlink:href="#DejaVuSans-110"/>
      <use x="445.654297" xlink:href="#DejaVuSans-99"/>
      <use x="500.634766" xlink:href="#DejaVuSans-121"/>
      <use x="559.814453" xlink:href="#DejaVuSans-32"/>
      <use x="591.601562" xlink:href="#DejaVuSans-40"/>
      <use x="630.615234" xlink:href="#DejaVuSans-37"/>
      <use x="725.634766" xlink:href="#DejaVuSans-41"/>
     </g>
    </g>
   </g>
   <g id="LineCollection_1">
    <path clip-path="url(#p9e98983d62)" d="M 70.84805 75.656245 
L 70.84805 55.385141 
" style="fill:none;stroke:#808080;stroke-width:1.25;"/>
    <path clip-path="url(#p9e98983d62)" d="M 97.74545 38.440422 
L 97.74545 35.69169 
" style="fill:none;stroke:#808080;stroke-width:1.25;"/>
    <path clip-path="url(#p9e98983d62)" d="M 138.09155 111.117519 
L 138.09155 87.997861 
" style="fill:none;stroke:#808080;stroke-width:1.25;"/>
    <path clip-path="url(#p9e98983d62)" d="M 164.98895 93.325105 
L 164.98895 57.553411 
" style="fill:none;stroke:#808080;stroke-width:1.25;"/>
    <path clip-path="url(#p9e98983d62)" d="M 205.33505 106.371639 
L 205.33505 84.11638 
" style="fill:none;stroke:#808080;stroke-width:1.25;"/>
    <path clip-path="url(#p9e98983d62)" d="M 232.23245 77.585161 
L 232.23245 51.226884 
" style="fill:none;stroke:#808080;stroke-width:1.25;"/>
    <path clip-path="url(#p9e98983d62)" d="M 272.57855 69.942596 
L 272.57855 39.424242 
" style="fill:none;stroke:#808080;stroke-width:1.25;"/>
    <path clip-path="url(#p9e98983d62)" d="M 299.47595 51.540714 
L 299.47595 33.860856 
" style="fill:none;stroke:#808080;stroke-width:1.25;"/>
    <path clip-path="url(#p9e98983d62)" d="M 339.82205 59.40697 
L 339.82205 40.169128 
" style="fill:none;stroke:#808080;stroke-width:1.25;"/>
    <path clip-path="url(#p9e98983d62)" d="M 366.71945 39.835772 
L 366.71945 35.908515 
" style="fill:none;stroke:#808080;stroke-width:1.25;"/>
    <path clip-path="url(#p9e98983d62)" d="M 407.06555 39.06996 
L 407.06555 36.376443 
" style="fill:none;stroke:#808080;stroke-width:1.25;"/>
    <path clip-path="url(#p9e98983d62)" d="M 433.96295 35.402152 
L 433.96295 34.390095 
" style="fill:none;stroke:#808080;stroke-width:1.25;"/>
   </g>
   <g id="line2d_13">
    <defs>
     <path d="M 2 0 
L -2 -0 
" id="md8fd5b4e0f" style="stroke:#808080;stroke-width:2;"/>
    </defs>
    <g clip-path="url(#p9e98983d62)">
     <use style="fill:#808080;stroke:#808080;stroke-width:2;" x="70.84805" xlink:href="#md8fd5b4e0f" y="75.656245"/>
     <use style="fill:#808080;stroke:#808080;stroke-width:2;" x="97.74545" xlink:href="#md8fd5b4e0f" y="38.440422"/>
     <use style="fill:#808080;stroke:#808080;stroke-width:2;" x="138.09155" xlink:href="#md8fd5b4e0f" y="111.117519"/>
     <use style="fill:#808080;stroke:#808080;stroke-width:2;" x="164.98895" xlink:href="#md8fd5b4e0f" y="93.325105"/>
     <use style="fill:#808080;stroke:#808080;stroke-width:2;" x="205.33505" xlink:href="#md8fd5b4e0f" y="106.371639"/>
     <use style="fill:#808080;stroke:#808080;stroke-width:2;" x="232.23245" xlink:href="#md8fd5b4e0f" y="77.585161"/>
     <use style="fill:#808080;stroke:#808080;stroke-width:2;" x="272.57855" xlink:href="#md8fd5b4e0f" y="69.942596"/>
     <use style="fill:#808080;stroke:#808080;stroke-width:2;" x="299.47595" xlink:href="#md8fd5b4e0f" y="51.540714"/>
     <use style="fill:#808080;stroke:#808080;stroke-width:2;" x="339.82205" xlink:href="#md8fd5b4e0f" y="59.40697"/>
     <use style="fill:#808080;stroke:#808080;stroke-width:2;" x="366.71945" xlink:href="#md8fd5b4e0f" y="39.835772"/>
     <use style="fill:#808080;stroke:#808080;stroke-width:2;" x="407.06555" xlink:href="#md8fd5b4e0f" y="39.06996"/>
     <use style="fill:#808080;stroke:#808080;stroke-width:2;" x="433.96295" xlink:href="#md8fd5b4e0f" y="35.402152"/>
    </g>
   </g>
   <g id="line2d_14">
    <g clip-path="url(#p9e98983d62)">
     <use style="fill:#808080;stroke:#808080;stroke-width:2;" x="70.84805" xlink:href="#md8fd5b4e0f" y="55.385141"/>
     <use style="fill:#808080;stroke:#808080;stroke-width:2;" x="97.74545" xlink:href="#md8fd5b4e0f" y="35.69169"/>
     <use style="fill:#808080;stroke:#808080;stroke-width:2;" x="138.09155" xlink:href="#md8fd5b4e0f" y="87.997861"/>
     <use style="fill:#808080;stroke:#808080;stroke-width:2;" x="164.98895" xlink:href="#md8fd5b4e0f" y="57.553411"/>
     <use style="fill:#808080;stroke:#808080;stroke-width:2;" x="205.33505" xlink:href="#md8fd5b4e0f" y="84.11638"/>
     <use style="fill:#808080;stroke:#808080;stroke-width:2;" x="232.23245" xlink:href="#md8fd5b4e0f" y="51.226884"/>
     <use style="fill:#808080;stroke:#808080;stroke-width:2;" x="272.57855" xlink:href="#md8fd5b4e0f" y="39.424242"/>
     <use style="fill:#808080;stroke:#808080;stroke-width:2;" x="299.47595" xlink:href="#md8fd5b4e0f" y="33.860856"/>
     <use style="fill:#808080;stroke:#808080;stroke-width:2;" x="339.82205" xlink:href="#md8fd5b4e0f" y="40.169128"/>
     <use style="fill:#808080;stroke:#808080;stroke-width:2;" x="366.71945" xlink:href="#md8fd5b4e0f" y="35.908515"/>
     <use style="fill:#808080;stroke:#808080;stroke-width:2;" x="407.06555" xlink:href="#md8fd5b4e0f" y="36.376443"/>
     <use style="fill:#808080;stroke:#808080;stroke-width:2;" x="433.96295" xlink:href="#md8fd5b4e0f" y="34.390095"/>
    </g>
   </g>
   <g id="line2d_15">
    <path clip-path="url(#p9e98983d62)" d="M 70.84805 65.520693 
L 97.74545 37.066056 
L 138.09155 99.55769 
L 164.98895 75.439258 
L 205.33505 95.24401 
L 232.23245 64.406023 
L 272.57855 54.683419 
L 299.47595 42.700785 
L 339.82205 49.788049 
L 366.71945 37.872143 
L 407.06555 37.723202 
L 433.96295 34.896123 
" style="fill:none;"/>
   </g>
   <g id="patch_15">
    <path d="M 50.675 147.16303 
L 50.675 26.8 
" style="fill:none;stroke:#000000;stroke-linecap:square;stroke-linejoin:miter;stroke-width:0.8;"/>
   </g>
   <g id="patch_16">
    <path d="M 454.136 147.16303 
L 454.136 26.8 
" style="fill:none;stroke:#000000;stroke-linecap:square;stroke-linejoin:miter;stroke-width:0.8;"/>
   </g>
   <g id="patch_17">
    <path d="M 50.675 147.16303 
L 454.136 147.16303 
" style="fill:none;stroke:#000000;stroke-linecap:square;stroke-linejoin:miter;stroke-width:0.8;"/>
   </g>
   <g id="patch_18">
    <path d="M 50.675 26.8 
L 454.136 26.8 
" style="fill:none;stroke:#000000;stroke-linecap:square;stroke-linejoin:miter;stroke-width:0.8;"/>
   </g>
   <g id="PathCollection_3">
    <defs>
     <path d="M 0 2.5 
C 0.663008 2.5 1.29895 2.236584 1.767767 1.767767 
C 2.236584 1.29895 2.5 0.663008 2.5 0 
C 2.5 -0.663008 2.236584 -1.29895 1.767767 -1.767767 
C 1.29895 -2.236584 0.663008 -2.5 0 -2.5 
C -0.663008 -2.5 -1.29895 -2.236584 -1.767767 -1.767767 
C -2.236584 -1.29895 -2.5 -0.663008 -2.5 0 
C -2.5 0.663008 -2.236584 1.29895 -1.767767 1.767767 
C -1.29895 2.236584 -0.663008 2.5 0 2.5 
z
" id="C0_0_eb2dd6ff8c"/>
    </defs>
    <g clip-path="url(#p9e98983d62)">
     <use style="fill:#1f77b4;" x="70.84805" xlink:href="#C0_0_eb2dd6ff8c" y="79.767016"/>
    </g>
    <g clip-path="url(#p9e98983d62)">
     <use style="fill:#1f77b4;" x="70.84805" xlink:href="#C0_0_eb2dd6ff8c" y="64.592411"/>
    </g>
    <g clip-path="url(#p9e98983d62)">
     <use style="fill:#1f77b4;" x="67.564486" xlink:href="#C0_0_eb2dd6ff8c" y="61.662003"/>
    </g>
    <g clip-path="url(#p9e98983d62)">
     <use style="fill:#1f77b4;" x="70.84805" xlink:href="#C0_0_eb2dd6ff8c" y="56.061341"/>
    </g>
   </g>
   <g id="PathCollection_4">
    <defs>
     <path d="M 0 2.5 
C 0.663008 2.5 1.29895 2.236584 1.767767 1.767767 
C 2.236584 1.29895 2.5 0.663008 2.5 0 
C 2.5 -0.663008 2.236584 -1.29895 1.767767 -1.767767 
C 1.29895 -2.236584 0.663008 -2.5 0 -2.5 
C -0.663008 -2.5 -1.29895 -2.236584 -1.767767 -1.767767 
C -2.236584 -1.29895 -2.5 -0.663008 -2.5 0 
C -2.5 0.663008 -2.236584 1.29895 -1.767767 1.767767 
C -1.29895 2.236584 -0.663008 2.5 0 2.5 
z
" id="C1_0_cd42d8e95a"/>
    </defs>
    <g clip-path="url(#p9e98983d62)">
     <use style="fill:#ff7f0e;" x="97.74545" xlink:href="#C1_0_cd42d8e95a" y="38.30658"/>
    </g>
    <g clip-path="url(#p9e98983d62)">
     <use style="fill:#ff7f0e;" x="102.421784" xlink:href="#C1_0_cd42d8e95a" y="37.618464"/>
    </g>
    <g clip-path="url(#p9e98983d62)">
     <use style="fill:#ff7f0e;" x="93.172932" xlink:href="#C1_0_cd42d8e95a" y="37.222036"/>
    </g>
    <g clip-path="url(#p9e98983d62)">
     <use style="fill:#ff7f0e;" x="106.15894" xlink:href="#C1_0_cd42d8e95a" y="35.117143"/>
    </g>
   </g>
   <g id="PathCollection_5">
    <defs>
     <path d="M 0 2.5 
C 0.663008 2.5 1.29895 2.236584 1.767767 1.767767 
C 2.236584 1.29895 2.5 0.663008 2.5 0 
C 2.5 -0.663008 2.236584 -1.29895 1.767767 -1.767767 
C 1.29895 -2.236584 0.663008 -2.5 0 -2.5 
C -0.663008 -2.5 -1.29895 -2.236584 -1.767767 -1.767767 
C -2.236584 -1.29895 -2.5 -0.663008 -2.5 0 
C -2.5 0.663008 -2.236584 1.29895 -1.767767 1.767767 
C -1.29895 2.236584 -0.663008 2.5 0 2.5 
z
" id="C2_0_db06827fd9"/>
    </defs>
    <g clip-path="url(#p9e98983d62)">
     <use style="fill:#1f77b4;" x="138.09155" xlink:href="#C2_0_db06827fd9" y="114.476926"/>
    </g>
    <g clip-path="url(#p9e98983d62)">
     <use style="fill:#1f77b4;" x="138.09155" xlink:href="#C2_0_db06827fd9" y="100.930826"/>
    </g>
    <g clip-path="url(#p9e98983d62)">
     <use style="fill:#1f77b4;" x="138.09155" xlink:href="#C2_0_db06827fd9" y="96.085854"/>
    </g>
    <g clip-path="url(#p9e98983d62)">
     <use style="fill:#1f77b4;" x="138.09155" xlink:href="#C2_0_db06827fd9" y="86.737153"/>
    </g>
   </g>
   <g id="PathCollection_6">
    <defs>
     <path d="M 0 2.5 
C 0.663008 2.5 1.29895 2.236584 1.767767 1.767767 
C 2.236584 1.29895 2.5 0.663008 2.5 0 
C 2.5 -0.663008 2.236584 -1.29895 1.767767 -1.767767 
C 1.29895 -2.236584 0.663008 -2.5 0 -2.5 
C -0.663008 -2.5 -1.29895 -2.236584 -1.767767 -1.767767 
C -2.236584 -1.29895 -2.5 -0.663008 -2.5 0 
C -2.5 0.663008 -2.236584 1.29895 -1.767767 1.767767 
C -1.29895 2.236584 -0.663008 2.5 0 2.5 
z
" id="C3_0_ab406e40bc"/>
    </defs>
    <g clip-path="url(#p9e98983d62)">
     <use style="fill:#ff7f0e;" x="164.98895" xlink:href="#C3_0_ab406e40bc" y="100.259603"/>
    </g>
    <g clip-path="url(#p9e98983d62)">
     <use style="fill:#ff7f0e;" x="164.98895" xlink:href="#C3_0_ab406e40bc" y="75.792607"/>
    </g>
    <g clip-path="url(#p9e98983d62)">
     <use style="fill:#ff7f0e;" x="164.98895" xlink:href="#C3_0_ab406e40bc" y="66.504722"/>
    </g>
    <g clip-path="url(#p9e98983d62)">
     <use style="fill:#ff7f0e;" x="164.98895" xlink:href="#C3_0_ab406e40bc" y="59.200099"/>
    </g>
   </g>
   <g id="PathCollection_7">
    <defs>
     <path d="M 0 2.5 
C 0.663008 2.5 1.29895 2.236584 1.767767 1.767767 
C 2.236584 1.29895 2.5 0.663008 2.5 0 
C 2.5 -0.663008 2.236584 -1.29895 1.767767 -1.767767 
C 1.29895 -2.236584 0.663008 -2.5 0 -2.5 
C -0.663008 -2.5 -1.29895 -2.236584 -1.767767 -1.767767 
C -2.236584 -1.29895 -2.5 -0.663008 -2.5 0 
C -2.5 0.663008 -2.236584 1.29895 -1.767767 1.767767 
C -1.29895 2.236584 -0.663008 2.5 0 2.5 
z
" id="C4_0_70c0508f53"/>
    </defs>
    <g clip-path="url(#p9e98983d62)">
     <use style="fill:#1f77b4;" x="205.33505" xlink:href="#C4_0_70c0508f53" y="102.383642"/>
    </g>
    <g clip-path="url(#p9e98983d62)">
     <use style="fill:#1f77b4;" x="200.590045" xlink:href="#C4_0_70c0508f53" y="102.382516"/>
    </g>
    <g clip-path="url(#p9e98983d62)">
     <use style="fill:#1f77b4;" x="205.33505" xlink:href="#C4_0_70c0508f53" y="97.259369"/>
    </g>
    <g clip-path="url(#p9e98983d62)">
     <use style="fill:#1f77b4;" x="205.33505" xlink:href="#C4_0_70c0508f53" y="78.950511"/>
    </g>
   </g>
   <g id="PathCollection_8">
    <defs>
     <path d="M 0 2.5 
C 0.663008 2.5 1.29895 2.236584 1.767767 1.767767 
C 2.236584 1.29895 2.5 0.663008 2.5 0 
C 2.5 -0.663008 2.236584 -1.29895 1.767767 -1.767767 
C 1.29895 -2.236584 0.663008 -2.5 0 -2.5 
C -0.663008 -2.5 -1.29895 -2.236584 -1.767767 -1.767767 
C -2.236584 -1.29895 -2.5 -0.663008 -2.5 0 
C -2.5 0.663008 -2.236584 1.29895 -1.767767 1.767767 
C -1.29895 2.236584 -0.663008 2.5 0 2.5 
z
" id="C5_0_070d1913b7"/>
    </defs>
    <g clip-path="url(#p9e98983d62)">
     <use style="fill:#ff7f0e;" x="232.23245" xlink:href="#C5_0_070d1913b7" y="82.495832"/>
    </g>
    <g clip-path="url(#p9e98983d62)">
     <use style="fill:#ff7f0e;" x="232.23245" xlink:href="#C5_0_070d1913b7" y="65.459596"/>
    </g>
    <g clip-path="url(#p9e98983d62)">
     <use style="fill:#ff7f0e;" x="232.23245" xlink:href="#C5_0_070d1913b7" y="57.011866"/>
    </g>
    <g clip-path="url(#p9e98983d62)">
     <use style="fill:#ff7f0e;" x="232.23245" xlink:href="#C5_0_070d1913b7" y="52.656797"/>
    </g>
   </g>
   <g id="PathCollection_9">
    <defs>
     <path d="M 0 2.5 
C 0.663008 2.5 1.29895 2.236584 1.767767 1.767767 
C 2.236584 1.29895 2.5 0.663008 2.5 0 
C 2.5 -0.663008 2.236584 -1.29895 1.767767 -1.767767 
C 1.29895 -2.236584 0.663008 -2.5 0 -2.5 
C -0.663008 -2.5 -1.29895 -2.236584 -1.767767 -1.767767 
C -2.236584 -1.29895 -2.5 -0.663008 -2.5 0 
C -2.5 0.663008 -2.236584 1.29895 -1.767767 1.767767 
C -1.29895 2.236584 -0.663008 2.5 0 2.5 
z
" id="C6_0_00f3311ad0"/>
    </defs>
    <g clip-path="url(#p9e98983d62)">
     <use style="fill:#1f77b4;" x="272.57855" xlink:href="#C6_0_00f3311ad0" y="68.067907"/>
    </g>
    <g clip-path="url(#p9e98983d62)">
     <use style="fill:#1f77b4;" x="267.855712" xlink:href="#C6_0_00f3311ad0" y="67.675984"/>
    </g>
    <g clip-path="url(#p9e98983d62)">
     <use style="fill:#1f77b4;" x="272.57855" xlink:href="#C6_0_00f3311ad0" y="42.657144"/>
    </g>
    <g clip-path="url(#p9e98983d62)">
     <use style="fill:#1f77b4;" x="268.688535" xlink:href="#C6_0_00f3311ad0" y="40.332639"/>
    </g>
   </g>
   <g id="PathCollection_10">
    <defs>
     <path d="M 0 2.5 
C 0.663008 2.5 1.29895 2.236584 1.767767 1.767767 
C 2.236584 1.29895 2.5 0.663008 2.5 0 
C 2.5 -0.663008 2.236584 -1.29895 1.767767 -1.767767 
C 1.29895 -2.236584 0.663008 -2.5 0 -2.5 
C -0.663008 -2.5 -1.29895 -2.236584 -1.767767 -1.767767 
C -2.236584 -1.29895 -2.5 -0.663008 -2.5 0 
C -2.5 0.663008 -2.236584 1.29895 -1.767767 1.767767 
C -1.29895 2.236584 -0.663008 2.5 0 2.5 
z
" id="C7_0_4aaf13df14"/>
    </defs>
    <g clip-path="url(#p9e98983d62)">
     <use style="fill:#ff7f0e;" x="299.47595" xlink:href="#C7_0_4aaf13df14" y="54.627671"/>
    </g>
    <g clip-path="url(#p9e98983d62)">
     <use style="fill:#ff7f0e;" x="299.47595" xlink:href="#C7_0_4aaf13df14" y="44.158387"/>
    </g>
    <g clip-path="url(#p9e98983d62)">
     <use style="fill:#ff7f0e;" x="299.47595" xlink:href="#C7_0_4aaf13df14" y="36.50126"/>
    </g>
    <g clip-path="url(#p9e98983d62)">
     <use style="fill:#ff7f0e;" x="294.872883" xlink:href="#C7_0_4aaf13df14" y="35.515822"/>
    </g>
   </g>
   <g id="PathCollection_11">
    <defs>
     <path d="M 0 2.5 
C 0.663008 2.5 1.29895 2.236584 1.767767 1.767767 
C 2.236584 1.29895 2.5 0.663008 2.5 0 
C 2.5 -0.663008 2.236584 -1.29895 1.767767 -1.767767 
C 1.29895 -2.236584 0.663008 -2.5 0 -2.5 
C -0.663008 -2.5 -1.29895 -2.236584 -1.767767 -1.767767 
C -2.236584 -1.29895 -2.5 -0.663008 -2.5 0 
C -2.5 0.663008 -2.236584 1.29895 -1.767767 1.767767 
C -1.29895 2.236584 -0.663008 2.5 0 2.5 
z
" id="C8_0_81e5aa4cf5"/>
    </defs>
    <g clip-path="url(#p9e98983d62)">
     <use style="fill:#1f77b4;" x="339.82205" xlink:href="#C8_0_81e5aa4cf5" y="63.494352"/>
    </g>
    <g clip-path="url(#p9e98983d62)">
     <use style="fill:#1f77b4;" x="339.82205" xlink:href="#C8_0_81e5aa4cf5" y="48.361417"/>
    </g>
    <g clip-path="url(#p9e98983d62)">
     <use style="fill:#1f77b4;" x="335.861423" xlink:href="#C8_0_81e5aa4cf5" y="46.125883"/>
    </g>
    <g clip-path="url(#p9e98983d62)">
     <use style="fill:#1f77b4;" x="339.82205" xlink:href="#C8_0_81e5aa4cf5" y="41.170542"/>
    </g>
   </g>
   <g id="PathCollection_12">
    <defs>
     <path d="M 0 2.5 
C 0.663008 2.5 1.29895 2.236584 1.767767 1.767767 
C 2.236584 1.29895 2.5 0.663008 2.5 0 
C 2.5 -0.663008 2.236584 -1.29895 1.767767 -1.767767 
C 1.29895 -2.236584 0.663008 -2.5 0 -2.5 
C -0.663008 -2.5 -1.29895 -2.236584 -1.767767 -1.767767 
C -2.236584 -1.29895 -2.5 -0.663008 -2.5 0 
C -2.5 0.663008 -2.236584 1.29895 -1.767767 1.767767 
C -1.29895 2.236584 -0.663008 2.5 0 2.5 
z
" id="C9_0_e0eaca1413"/>
    </defs>
    <g clip-path="url(#p9e98983d62)">
     <use style="fill:#ff7f0e;" x="366.71945" xlink:href="#C9_0_e0eaca1413" y="39.646775"/>
    </g>
    <g clip-path="url(#p9e98983d62)">
     <use style="fill:#ff7f0e;" x="362.061176" xlink:href="#C9_0_e0eaca1413" y="38.874192"/>
    </g>
    <g clip-path="url(#p9e98983d62)">
     <use style="fill:#ff7f0e;" x="370.955537" xlink:href="#C9_0_e0eaca1413" y="37.817804"/>
    </g>
    <g clip-path="url(#p9e98983d62)">
     <use style="fill:#ff7f0e;" x="366.71945" xlink:href="#C9_0_e0eaca1413" y="35.149803"/>
    </g>
   </g>
   <g id="PathCollection_13">
    <defs>
     <path d="M 0 2.5 
C 0.663008 2.5 1.29895 2.236584 1.767767 1.767767 
C 2.236584 1.29895 2.5 0.663008 2.5 0 
C 2.5 -0.663008 2.236584 -1.29895 1.767767 -1.767767 
C 1.29895 -2.236584 0.663008 -2.5 0 -2.5 
C -0.663008 -2.5 -1.29895 -2.236584 -1.767767 -1.767767 
C -2.236584 -1.29895 -2.5 -0.663008 -2.5 0 
C -2.5 0.663008 -2.236584 1.29895 -1.767767 1.767767 
C -1.29895 2.236584 -0.663008 2.5 0 2.5 
z
" id="Ca_0_b8be848903"/>
    </defs>
    <g clip-path="url(#p9e98983d62)">
     <use style="fill:#1f77b4;" x="407.06555" xlink:href="#Ca_0_b8be848903" y="39.18728"/>
    </g>
    <g clip-path="url(#p9e98983d62)">
     <use style="fill:#1f77b4;" x="402.480156" xlink:href="#Ca_0_b8be848903" y="38.143279"/>
    </g>
    <g clip-path="url(#p9e98983d62)">
     <use style="fill:#1f77b4;" x="411.433549" xlink:href="#Ca_0_b8be848903" y="37.60157"/>
    </g>
    <g clip-path="url(#p9e98983d62)">
     <use style="fill:#1f77b4;" x="398.479394" xlink:href="#Ca_0_b8be848903" y="35.960677"/>
    </g>
   </g>
   <g id="PathCollection_14">
    <defs>
     <path d="M 0 2.5 
C 0.663008 2.5 1.29895 2.236584 1.767767 1.767767 
C 2.236584 1.29895 2.5 0.663008 2.5 0 
C 2.5 -0.663008 2.236584 -1.29895 1.767767 -1.767767 
C 1.29895 -2.236584 0.663008 -2.5 0 -2.5 
C -0.663008 -2.5 -1.29895 -2.236584 -1.767767 -1.767767 
C -2.236584 -1.29895 -2.5 -0.663008 -2.5 0 
C -2.5 0.663008 -2.236584 1.29895 -1.767767 1.767767 
C -1.29895 2.236584 -0.663008 2.5 0 2.5 
z
" id="Cb_0_63d889313b"/>
    </defs>
    <g clip-path="url(#p9e98983d62)">
     <use style="fill:#ff7f0e;" x="433.96295" xlink:href="#Cb_0_63d889313b" y="35.641958"/>
    </g>
    <g clip-path="url(#p9e98983d62)">
     <use style="fill:#ff7f0e;" x="429.327482" xlink:href="#Cb_0_63d889313b" y="34.774774"/>
    </g>
    <g clip-path="url(#p9e98983d62)">
     <use style="fill:#ff7f0e;" x="438.554241" xlink:href="#Cb_0_63d889313b" y="34.617104"/>
    </g>
    <g clip-path="url(#p9e98983d62)">
     <use style="fill:#ff7f0e;" x="443.29861" xlink:href="#Cb_0_63d889313b" y="34.550657"/>
    </g>
   </g>
   <g id="text_15">
    <!-- Controls -->
    <defs>
     <path d="M 41.109375 46.296875 
Q 39.59375 47.171875 37.8125 47.578125 
Q 36.03125 48 33.890625 48 
Q 26.265625 48 22.1875 43.046875 
Q 18.109375 38.09375 18.109375 28.8125 
L 18.109375 0 
L 9.078125 0 
L 9.078125 54.6875 
L 18.109375 54.6875 
L 18.109375 46.1875 
Q 20.953125 51.171875 25.484375 53.578125 
Q 30.03125 56 36.53125 56 
Q 37.453125 56 38.578125 55.875 
Q 39.703125 55.765625 41.0625 55.515625 
z
" id="DejaVuSans-114"/>
    </defs>
    <g transform="translate(227.461438 20.8)scale(0.12 -0.12)">
     <use xlink:href="#DejaVuSans-67"/>
     <use x="69.824219" xlink:href="#DejaVuSans-111"/>
     <use x="131.005859" xlink:href="#DejaVuSans-110"/>
     <use x="194.384766" xlink:href="#DejaVuSans-116"/>
     <use x="233.59375" xlink:href="#DejaVuSans-114"/>
     <use x="274.675781" xlink:href="#DejaVuSans-111"/>
     <use x="335.857422" xlink:href="#DejaVuSans-108"/>
     <use x="363.640625" xlink:href="#DejaVuSans-115"/>
    </g>
   </g>
   <g id="legend_1">
    <g id="patch_19">
     <path d="M 513.67336 72.816224 
L 552.03586 72.816224 
Q 554.03586 72.816224 554.03586 70.816224 
L 554.03586 27.781849 
Q 554.03586 25.781849 552.03586 25.781849 
L 513.67336 25.781849 
Q 511.67336 25.781849 511.67336 27.781849 
L 511.67336 70.816224 
Q 511.67336 72.816224 513.67336 72.816224 
z
" style="fill:#ffffff;opacity:0.8;stroke:#cccccc;stroke-linejoin:miter;"/>
    </g>
    <g id="text_16">
     <!-- Day -->
     <defs>
      <path d="M 34.28125 27.484375 
Q 23.390625 27.484375 19.1875 25 
Q 14.984375 22.515625 14.984375 16.5 
Q 14.984375 11.71875 18.140625 8.90625 
Q 21.296875 6.109375 26.703125 6.109375 
Q 34.1875 6.109375 38.703125 11.40625 
Q 43.21875 16.703125 43.21875 25.484375 
L 43.21875 27.484375 
z
M 52.203125 31.203125 
L 52.203125 0 
L 43.21875 0 
L 43.21875 8.296875 
Q 40.140625 3.328125 35.546875 0.953125 
Q 30.953125 -1.421875 24.3125 -1.421875 
Q 15.921875 -1.421875 10.953125 3.296875 
Q 6 8.015625 6 15.921875 
Q 6 25.140625 12.171875 29.828125 
Q 18.359375 34.515625 30.609375 34.515625 
L 43.21875 34.515625 
L 43.21875 35.40625 
Q 43.21875 41.609375 39.140625 45 
Q 35.0625 48.390625 27.6875 48.390625 
Q 23 48.390625 18.546875 47.265625 
Q 14.109375 46.140625 10.015625 43.890625 
L 10.015625 52.203125 
Q 14.9375 54.109375 19.578125 55.046875 
Q 24.21875 56 28.609375 56 
Q 40.484375 56 46.34375 49.84375 
Q 52.203125 43.703125 52.203125 31.203125 
z
" id="DejaVuSans-97"/>
     </defs>
     <g transform="translate(522.981172 37.380286)scale(0.1 -0.1)">
      <use xlink:href="#DejaVuSans-68"/>
      <use x="77.001953" xlink:href="#DejaVuSans-97"/>
      <use x="138.28125" xlink:href="#DejaVuSans-121"/>
     </g>
    </g>
    <g id="PathCollection_15">
     <defs>
      <path d="M 0 3.872983 
C 1.027127 3.872983 2.012324 3.464901 2.738613 2.738613 
C 3.464901 2.012324 3.872983 1.027127 3.872983 0 
C 3.872983 -1.027127 3.464901 -2.012324 2.738613 -2.738613 
C 2.012324 -3.464901 1.027127 -3.872983 0 -3.872983 
C -1.027127 -3.872983 -2.012324 -3.464901 -2.738613 -2.738613 
C -3.464901 -2.012324 -3.872983 -1.027127 -3.872983 0 
C -3.872983 1.027127 -3.464901 2.012324 -2.738613 2.738613 
C -2.012324 3.464901 -1.027127 3.872983 0 3.872983 
z
" id="m50bdfca731" style="stroke:#1f77b4;"/>
     </defs>
     <g>
      <use style="fill:#1f77b4;stroke:#1f77b4;" x="525.67336" xlink:href="#m50bdfca731" y="49.433411"/>
     </g>
    </g>
    <g id="text_17">
     <!-- 1 -->
     <g transform="translate(543.67336 52.058411)scale(0.1 -0.1)">
      <use xlink:href="#DejaVuSans-49"/>
     </g>
    </g>
    <g id="PathCollection_16">
     <defs>
      <path d="M 0 3.872983 
C 1.027127 3.872983 2.012324 3.464901 2.738613 2.738613 
C 3.464901 2.012324 3.872983 1.027127 3.872983 0 
C 3.872983 -1.027127 3.464901 -2.012324 2.738613 -2.738613 
C 2.012324 -3.464901 1.027127 -3.872983 0 -3.872983 
C -1.027127 -3.872983 -2.012324 -3.464901 -2.738613 -2.738613 
C -3.464901 -2.012324 -3.872983 -1.027127 -3.872983 0 
C -3.872983 1.027127 -3.464901 2.012324 -2.738613 2.738613 
C -2.012324 3.464901 -1.027127 3.872983 0 3.872983 
z
" id="m1687d097d7" style="stroke:#ff7f0e;"/>
     </defs>
     <g>
      <use style="fill:#ff7f0e;stroke:#ff7f0e;" x="525.67336" xlink:href="#m1687d097d7" y="64.111536"/>
     </g>
    </g>
    <g id="text_18">
     <!-- 2 -->
     <g transform="translate(543.67336 66.736536)scale(0.1 -0.1)">
      <use xlink:href="#DejaVuSans-50"/>
     </g>
    </g>
   </g>
  </g>
  <g id="axes_2">
   <g id="patch_20">
    <path d="M 50.675 358.249166 
L 454.136 358.249166 
L 454.136 237.886136 
L 50.675 237.886136 
z
" style="fill:none;"/>
   </g>
   <g id="PathCollection_17"/>
   <g id="PathCollection_18"/>
   <g id="patch_21">
    <path clip-path="url(#p434bc5c217)" d="M 69.014136 358.249166 
L 107.622844 358.249166 
L 107.622844 269.38644 
L 69.014136 269.38644 
z
" style="fill:#3274a1;opacity:0.25;"/>
   </g>
   <g id="patch_22">
    <path clip-path="url(#p434bc5c217)" d="M 165.535907 358.249166 
L 204.144615 358.249166 
L 204.144615 267.53667 
L 165.535907 267.53667 
z
" style="fill:#3274a1;opacity:0.25;"/>
   </g>
   <g id="patch_23">
    <path clip-path="url(#p434bc5c217)" d="M 262.057677 358.249166 
L 300.666385 358.249166 
L 300.666385 268.733249 
L 262.057677 268.733249 
z
" style="fill:#3274a1;opacity:0.25;"/>
   </g>
   <g id="patch_24">
    <path clip-path="url(#p434bc5c217)" d="M 358.579447 358.249166 
L 397.188156 358.249166 
L 397.188156 257.466827 
L 358.579447 257.466827 
z
" style="fill:#3274a1;opacity:0.25;"/>
   </g>
   <g id="patch_25">
    <path clip-path="url(#p434bc5c217)" d="M 107.622844 358.249166 
L 146.231553 358.249166 
L 146.231553 248.893692 
L 107.622844 248.893692 
z
" style="fill:#e1812c;opacity:0.25;"/>
   </g>
   <g id="patch_26">
    <path clip-path="url(#p434bc5c217)" d="M 204.144615 358.249166 
L 242.753323 358.249166 
L 242.753323 247.008728 
L 204.144615 247.008728 
z
" style="fill:#e1812c;opacity:0.25;"/>
   </g>
   <g id="patch_27">
    <path clip-path="url(#p434bc5c217)" d="M 300.666385 358.249166 
L 339.275093 358.249166 
L 339.275093 249.000962 
L 300.666385 249.000962 
z
" style="fill:#e1812c;opacity:0.25;"/>
   </g>
   <g id="patch_28">
    <path clip-path="url(#p434bc5c217)" d="M 397.188156 358.249166 
L 435.796864 358.249166 
L 435.796864 246.500534 
L 397.188156 246.500534 
z
" style="fill:#e1812c;opacity:0.25;"/>
   </g>
   <g id="matplotlib.axis_3">
    <g id="xtick_7">
     <g id="line2d_16">
      <g>
       <use style="stroke:#000000;stroke-width:0.8;" x="107.622844" xlink:href="#mb12222fc48" y="358.249166"/>
      </g>
     </g>
     <g id="text_19">
      <!-- PI only -->
      <defs>
       <path d="M 9.8125 72.90625 
L 19.671875 72.90625 
L 19.671875 0 
L 9.8125 0 
z
" id="DejaVuSans-73"/>
      </defs>
      <g transform="translate(97.796822 394.176462)rotate(-45)scale(0.1 -0.1)">
       <use xlink:href="#DejaVuSans-80"/>
       <use x="60.302734" xlink:href="#DejaVuSans-73"/>
       <use x="89.794922" xlink:href="#DejaVuSans-32"/>
       <use x="121.582031" xlink:href="#DejaVuSans-111"/>
       <use x="182.763672" xlink:href="#DejaVuSans-110"/>
       <use x="246.142578" xlink:href="#DejaVuSans-108"/>
       <use x="273.925781" xlink:href="#DejaVuSans-121"/>
      </g>
     </g>
    </g>
    <g id="xtick_8">
     <g id="line2d_17">
      <g>
       <use style="stroke:#000000;stroke-width:0.8;" x="204.144615" xlink:href="#mb12222fc48" y="358.249166"/>
      </g>
     </g>
     <g id="text_20">
      <!-- No stain -->
      <defs>
       <path d="M 9.8125 72.90625 
L 23.09375 72.90625 
L 55.421875 11.921875 
L 55.421875 72.90625 
L 64.984375 72.90625 
L 64.984375 0 
L 51.703125 0 
L 19.390625 60.984375 
L 19.390625 0 
L 9.8125 0 
z
" id="DejaVuSans-78"/>
      </defs>
      <g transform="translate(191.546513 399.720621)rotate(-45)scale(0.1 -0.1)">
       <use xlink:href="#DejaVuSans-78"/>
       <use x="74.804688" xlink:href="#DejaVuSans-111"/>
       <use x="135.986328" xlink:href="#DejaVuSans-32"/>
       <use x="167.773438" xlink:href="#DejaVuSans-115"/>
       <use x="219.873047" xlink:href="#DejaVuSans-116"/>
       <use x="259.082031" xlink:href="#DejaVuSans-97"/>
       <use x="320.361328" xlink:href="#DejaVuSans-105"/>
       <use x="348.144531" xlink:href="#DejaVuSans-110"/>
      </g>
     </g>
    </g>
    <g id="xtick_9">
     <g id="line2d_18">
      <g>
       <use style="stroke:#000000;stroke-width:0.8;" x="300.666385" xlink:href="#mb12222fc48" y="358.249166"/>
      </g>
     </g>
     <g id="text_21">
      <!-- Control -->
      <g transform="translate(289.76092 396.335348)rotate(-45)scale(0.1 -0.1)">
       <use xlink:href="#DejaVuSans-67"/>
       <use x="69.824219" xlink:href="#DejaVuSans-111"/>
       <use x="131.005859" xlink:href="#DejaVuSans-110"/>
       <use x="194.384766" xlink:href="#DejaVuSans-116"/>
       <use x="233.59375" xlink:href="#DejaVuSans-114"/>
       <use x="274.675781" xlink:href="#DejaVuSans-111"/>
       <use x="335.857422" xlink:href="#DejaVuSans-108"/>
      </g>
     </g>
    </g>
    <g id="xtick_10">
     <g id="line2d_19">
      <g>
       <use style="stroke:#000000;stroke-width:0.8;" x="397.188156" xlink:href="#mb12222fc48" y="358.249166"/>
      </g>
     </g>
     <g id="text_22">
      <!-- SFM -->
      <defs>
       <path d="M 53.515625 70.515625 
L 53.515625 60.890625 
Q 47.90625 63.578125 42.921875 64.890625 
Q 37.9375 66.21875 33.296875 66.21875 
Q 25.25 66.21875 20.875 63.09375 
Q 16.5 59.96875 16.5 54.203125 
Q 16.5 49.359375 19.40625 46.890625 
Q 22.3125 44.4375 30.421875 42.921875 
L 36.375 41.703125 
Q 47.40625 39.59375 52.65625 34.296875 
Q 57.90625 29 57.90625 20.125 
Q 57.90625 9.515625 50.796875 4.046875 
Q 43.703125 -1.421875 29.984375 -1.421875 
Q 24.8125 -1.421875 18.96875 -0.25 
Q 13.140625 0.921875 6.890625 3.21875 
L 6.890625 13.375 
Q 12.890625 10.015625 18.65625 8.296875 
Q 24.421875 6.59375 29.984375 6.59375 
Q 38.421875 6.59375 43.015625 9.90625 
Q 47.609375 13.234375 47.609375 19.390625 
Q 47.609375 24.75 44.3125 27.78125 
Q 41.015625 30.8125 33.5 32.328125 
L 27.484375 33.5 
Q 16.453125 35.6875 11.515625 40.375 
Q 6.59375 45.0625 6.59375 53.421875 
Q 6.59375 63.09375 13.40625 68.65625 
Q 20.21875 74.21875 32.171875 74.21875 
Q 37.3125 74.21875 42.625 73.28125 
Q 47.953125 72.359375 53.515625 70.515625 
z
" id="DejaVuSans-83"/>
       <path d="M 9.8125 72.90625 
L 51.703125 72.90625 
L 51.703125 64.59375 
L 19.671875 64.59375 
L 19.671875 43.109375 
L 48.578125 43.109375 
L 48.578125 34.8125 
L 19.671875 34.8125 
L 19.671875 0 
L 9.8125 0 
z
" id="DejaVuSans-70"/>
       <path d="M 9.8125 72.90625 
L 24.515625 72.90625 
L 43.109375 23.296875 
L 61.8125 72.90625 
L 76.515625 72.90625 
L 76.515625 0 
L 66.890625 0 
L 66.890625 64.015625 
L 48.09375 14.015625 
L 38.1875 14.015625 
L 19.390625 64.015625 
L 19.390625 0 
L 9.8125 0 
z
" id="DejaVuSans-77"/>
      </defs>
      <g transform="translate(391.810829 385.27907)rotate(-45)scale(0.1 -0.1)">
       <use xlink:href="#DejaVuSans-83"/>
       <use x="63.476562" xlink:href="#DejaVuSans-70"/>
       <use x="120.996094" xlink:href="#DejaVuSans-77"/>
      </g>
     </g>
    </g>
    <g id="text_23">
     <!-- Density (x 10$^5$) -->
     <g transform="translate(214.5555 414.191183)scale(0.1 -0.1)">
      <use transform="translate(0 0.684375)" xlink:href="#DejaVuSans-68"/>
      <use transform="translate(77.001953 0.684375)" xlink:href="#DejaVuSans-101"/>
      <use transform="translate(138.525391 0.684375)" xlink:href="#DejaVuSans-110"/>
      <use transform="translate(201.904297 0.684375)" xlink:href="#DejaVuSans-115"/>
      <use transform="translate(254.003906 0.684375)" xlink:href="#DejaVuSans-105"/>
      <use transform="translate(281.787109 0.684375)" xlink:href="#DejaVuSans-116"/>
      <use transform="translate(320.996094 0.684375)" xlink:href="#DejaVuSans-121"/>
      <use transform="translate(380.175781 0.684375)" xlink:href="#DejaVuSans-32"/>
      <use transform="translate(411.962891 0.684375)" xlink:href="#DejaVuSans-40"/>
      <use transform="translate(450.976562 0.684375)" xlink:href="#DejaVuSans-120"/>
      <use transform="translate(510.15625 0.684375)" xlink:href="#DejaVuSans-32"/>
      <use transform="translate(541.943359 0.684375)" xlink:href="#DejaVuSans-49"/>
      <use transform="translate(605.566406 0.684375)" xlink:href="#DejaVuSans-48"/>
      <use transform="translate(670.146484 38.965625)scale(0.7)" xlink:href="#DejaVuSans-53"/>
      <use transform="translate(717.416992 0.684375)" xlink:href="#DejaVuSans-41"/>
     </g>
    </g>
   </g>
   <g id="matplotlib.axis_4">
    <g id="ytick_7">
     <g id="line2d_20">
      <g>
       <use style="stroke:#000000;stroke-width:0.8;" x="50.675" xlink:href="#ma6944fd4fd" y="358.249166"/>
      </g>
     </g>
     <g id="text_24">
      <!-- 0 -->
      <g transform="translate(37.3125 362.048385)scale(0.1 -0.1)">
       <use xlink:href="#DejaVuSans-48"/>
      </g>
     </g>
    </g>
    <g id="ytick_8">
     <g id="line2d_21">
      <g>
       <use style="stroke:#000000;stroke-width:0.8;" x="50.675" xlink:href="#ma6944fd4fd" y="335.72533"/>
      </g>
     </g>
     <g id="text_25">
      <!-- 20 -->
      <g transform="translate(30.95 339.524549)scale(0.1 -0.1)">
       <use xlink:href="#DejaVuSans-50"/>
       <use x="63.623047" xlink:href="#DejaVuSans-48"/>
      </g>
     </g>
    </g>
    <g id="ytick_9">
     <g id="line2d_22">
      <g>
       <use style="stroke:#000000;stroke-width:0.8;" x="50.675" xlink:href="#ma6944fd4fd" y="313.201495"/>
      </g>
     </g>
     <g id="text_26">
      <!-- 40 -->
      <g transform="translate(30.95 317.000713)scale(0.1 -0.1)">
       <use xlink:href="#DejaVuSans-52"/>
       <use x="63.623047" xlink:href="#DejaVuSans-48"/>
      </g>
     </g>
    </g>
    <g id="ytick_10">
     <g id="line2d_23">
      <g>
       <use style="stroke:#000000;stroke-width:0.8;" x="50.675" xlink:href="#ma6944fd4fd" y="290.677659"/>
      </g>
     </g>
     <g id="text_27">
      <!-- 60 -->
      <g transform="translate(30.95 294.476878)scale(0.1 -0.1)">
       <use xlink:href="#DejaVuSans-54"/>
       <use x="63.623047" xlink:href="#DejaVuSans-48"/>
      </g>
     </g>
    </g>
    <g id="ytick_11">
     <g id="line2d_24">
      <g>
       <use style="stroke:#000000;stroke-width:0.8;" x="50.675" xlink:href="#ma6944fd4fd" y="268.153824"/>
      </g>
     </g>
     <g id="text_28">
      <!-- 80 -->
      <g transform="translate(30.95 271.953042)scale(0.1 -0.1)">
       <use xlink:href="#DejaVuSans-56"/>
       <use x="63.623047" xlink:href="#DejaVuSans-48"/>
      </g>
     </g>
    </g>
    <g id="ytick_12">
     <g id="line2d_25">
      <g>
       <use style="stroke:#000000;stroke-width:0.8;" x="50.675" xlink:href="#ma6944fd4fd" y="245.629988"/>
      </g>
     </g>
     <g id="text_29">
      <!-- 100 -->
      <g transform="translate(24.5875 249.429207)scale(0.1 -0.1)">
       <use xlink:href="#DejaVuSans-49"/>
       <use x="63.623047" xlink:href="#DejaVuSans-48"/>
       <use x="127.246094" xlink:href="#DejaVuSans-48"/>
      </g>
     </g>
    </g>
    <g id="text_30">
     <!-- Confluency (%) -->
     <g transform="translate(18.507812 336.300463)rotate(-90)scale(0.1 -0.1)">
      <use xlink:href="#DejaVuSans-67"/>
      <use x="69.824219" xlink:href="#DejaVuSans-111"/>
      <use x="131.005859" xlink:href="#DejaVuSans-110"/>
      <use x="194.384766" xlink:href="#DejaVuSans-102"/>
      <use x="229.589844" xlink:href="#DejaVuSans-108"/>
      <use x="257.373047" xlink:href="#DejaVuSans-117"/>
      <use x="320.751953" xlink:href="#DejaVuSans-101"/>
      <use x="382.275391" xlink:href="#DejaVuSans-110"/>
      <use x="445.654297" xlink:href="#DejaVuSans-99"/>
      <use x="500.634766" xlink:href="#DejaVuSans-121"/>
      <use x="559.814453" xlink:href="#DejaVuSans-32"/>
      <use x="591.601562" xlink:href="#DejaVuSans-40"/>
      <use x="630.615234" xlink:href="#DejaVuSans-37"/>
      <use x="725.634766" xlink:href="#DejaVuSans-41"/>
     </g>
    </g>
   </g>
   <g id="LineCollection_2">
    <path clip-path="url(#p434bc5c217)" d="M 88.31849 281.652885 
L 88.31849 257.119996 
" style="fill:none;stroke:#808080;stroke-width:1.25;"/>
    <path clip-path="url(#p434bc5c217)" d="M 126.927199 250.787017 
L 126.927199 247.000367 
" style="fill:none;stroke:#808080;stroke-width:1.25;"/>
    <path clip-path="url(#p434bc5c217)" d="M 184.840261 272.379907 
L 184.840261 262.693434 
" style="fill:none;stroke:#808080;stroke-width:1.25;"/>
    <path clip-path="url(#p434bc5c217)" d="M 223.448969 248.012029 
L 223.448969 246.005428 
" style="fill:none;stroke:#808080;stroke-width:1.25;"/>
    <path clip-path="url(#p434bc5c217)" d="M 281.362031 270.732872 
L 281.362031 266.733626 
" style="fill:none;stroke:#808080;stroke-width:1.25;"/>
    <path clip-path="url(#p434bc5c217)" d="M 319.970739 251.954497 
L 319.970739 246.047426 
" style="fill:none;stroke:#808080;stroke-width:1.25;"/>
    <path clip-path="url(#p434bc5c217)" d="M 377.883801 264.530622 
L 377.883801 250.403032 
" style="fill:none;stroke:#808080;stroke-width:1.25;"/>
    <path clip-path="url(#p434bc5c217)" d="M 416.49251 247.219182 
L 416.49251 245.781886 
" style="fill:none;stroke:#808080;stroke-width:1.25;"/>
   </g>
   <g id="line2d_26">
    <g clip-path="url(#p434bc5c217)">
     <use style="fill:#808080;stroke:#808080;stroke-width:2;" x="88.31849" xlink:href="#md8fd5b4e0f" y="281.652885"/>
     <use style="fill:#808080;stroke:#808080;stroke-width:2;" x="126.927199" xlink:href="#md8fd5b4e0f" y="250.787017"/>
     <use style="fill:#808080;stroke:#808080;stroke-width:2;" x="184.840261" xlink:href="#md8fd5b4e0f" y="272.379907"/>
     <use style="fill:#808080;stroke:#808080;stroke-width:2;" x="223.448969" xlink:href="#md8fd5b4e0f" y="248.012029"/>
     <use style="fill:#808080;stroke:#808080;stroke-width:2;" x="281.362031" xlink:href="#md8fd5b4e0f" y="270.732872"/>
     <use style="fill:#808080;stroke:#808080;stroke-width:2;" x="319.970739" xlink:href="#md8fd5b4e0f" y="251.954497"/>
     <use style="fill:#808080;stroke:#808080;stroke-width:2;" x="377.883801" xlink:href="#md8fd5b4e0f" y="264.530622"/>
     <use style="fill:#808080;stroke:#808080;stroke-width:2;" x="416.49251" xlink:href="#md8fd5b4e0f" y="247.219182"/>
    </g>
   </g>
   <g id="line2d_27">
    <g clip-path="url(#p434bc5c217)">
     <use style="fill:#808080;stroke:#808080;stroke-width:2;" x="88.31849" xlink:href="#md8fd5b4e0f" y="257.119996"/>
     <use style="fill:#808080;stroke:#808080;stroke-width:2;" x="126.927199" xlink:href="#md8fd5b4e0f" y="247.000367"/>
     <use style="fill:#808080;stroke:#808080;stroke-width:2;" x="184.840261" xlink:href="#md8fd5b4e0f" y="262.693434"/>
     <use style="fill:#808080;stroke:#808080;stroke-width:2;" x="223.448969" xlink:href="#md8fd5b4e0f" y="246.005428"/>
     <use style="fill:#808080;stroke:#808080;stroke-width:2;" x="281.362031" xlink:href="#md8fd5b4e0f" y="266.733626"/>
     <use style="fill:#808080;stroke:#808080;stroke-width:2;" x="319.970739" xlink:href="#md8fd5b4e0f" y="246.047426"/>
     <use style="fill:#808080;stroke:#808080;stroke-width:2;" x="377.883801" xlink:href="#md8fd5b4e0f" y="250.403032"/>
     <use style="fill:#808080;stroke:#808080;stroke-width:2;" x="416.49251" xlink:href="#md8fd5b4e0f" y="245.781886"/>
    </g>
   </g>
   <g id="line2d_28">
    <path clip-path="url(#p434bc5c217)" d="M 88.31849 269.38644 
L 126.927199 248.893692 
L 184.840261 267.53667 
L 223.448969 247.008728 
L 281.362031 268.733249 
L 319.970739 249.000962 
L 377.883801 257.466827 
L 416.49251 246.500534 
" style="fill:none;"/>
   </g>
   <g id="patch_29">
    <path d="M 50.675 358.249166 
L 50.675 237.886136 
" style="fill:none;stroke:#000000;stroke-linecap:square;stroke-linejoin:miter;stroke-width:0.8;"/>
   </g>
   <g id="patch_30">
    <path d="M 454.136 358.249166 
L 454.136 237.886136 
" style="fill:none;stroke:#000000;stroke-linecap:square;stroke-linejoin:miter;stroke-width:0.8;"/>
   </g>
   <g id="patch_31">
    <path d="M 50.675 358.249166 
L 454.136 358.249166 
" style="fill:none;stroke:#000000;stroke-linecap:square;stroke-linejoin:miter;stroke-width:0.8;"/>
   </g>
   <g id="patch_32">
    <path d="M 50.675 237.886136 
L 454.136 237.886136 
" style="fill:none;stroke:#000000;stroke-linecap:square;stroke-linejoin:miter;stroke-width:0.8;"/>
   </g>
   <g id="PathCollection_19">
    <defs>
     <path d="M 0 2.5 
C 0.663008 2.5 1.29895 2.236584 1.767767 1.767767 
C 2.236584 1.29895 2.5 0.663008 2.5 0 
C 2.5 -0.663008 2.236584 -1.29895 1.767767 -1.767767 
C 1.29895 -2.236584 0.663008 -2.5 0 -2.5 
C -0.663008 -2.5 -1.29895 -2.236584 -1.767767 -1.767767 
C -2.236584 -1.29895 -2.5 -0.663008 -2.5 0 
C -2.5 0.663008 -2.236584 1.29895 -1.767767 1.767767 
C -1.29895 2.236584 -0.663008 2.5 0 2.5 
z
" id="Cc_0_846559b7ce"/>
    </defs>
    <g clip-path="url(#p434bc5c217)">
     <use style="fill:#1f77b4;" x="88.31849" xlink:href="#Cc_0_846559b7ce" y="287.700008"/>
    </g>
    <g clip-path="url(#p434bc5c217)">
     <use style="fill:#1f77b4;" x="88.31849" xlink:href="#Cc_0_846559b7ce" y="264.957691"/>
    </g>
    <g clip-path="url(#p434bc5c217)">
     <use style="fill:#1f77b4;" x="84.723625" xlink:href="#Cc_0_846559b7ce" y="262.477817"/>
    </g>
    <g clip-path="url(#p434bc5c217)">
     <use style="fill:#1f77b4;" x="91.853744" xlink:href="#Cc_0_846559b7ce" y="262.410246"/>
    </g>
   </g>
   <g id="PathCollection_20">
    <defs>
     <path d="M 0 2.5 
C 0.663008 2.5 1.29895 2.236584 1.767767 1.767767 
C 2.236584 1.29895 2.5 0.663008 2.5 0 
C 2.5 -0.663008 2.236584 -1.29895 1.767767 -1.767767 
C 1.29895 -2.236584 0.663008 -2.5 0 -2.5 
C -0.663008 -2.5 -1.29895 -2.236584 -1.767767 -1.767767 
C -2.236584 -1.29895 -2.5 -0.663008 -2.5 0 
C -2.5 0.663008 -2.236584 1.29895 -1.767767 1.767767 
C -1.29895 2.236584 -0.663008 2.5 0 2.5 
z
" id="Cd_0_2096b182c5"/>
    </defs>
    <g clip-path="url(#p434bc5c217)">
     <use style="fill:#ff7f0e;" x="126.927199" xlink:href="#Cd_0_2096b182c5" y="250.820606"/>
    </g>
    <g clip-path="url(#p434bc5c217)">
     <use style="fill:#ff7f0e;" x="122.502659" xlink:href="#Cd_0_2096b182c5" y="249.908391"/>
    </g>
    <g clip-path="url(#p434bc5c217)">
     <use style="fill:#ff7f0e;" x="130.522064" xlink:href="#Cd_0_2096b182c5" y="248.340732"/>
    </g>
    <g clip-path="url(#p434bc5c217)">
     <use style="fill:#ff7f0e;" x="126.472195" xlink:href="#Cd_0_2096b182c5" y="246.505039"/>
    </g>
   </g>
   <g id="PathCollection_21">
    <defs>
     <path d="M 0 2.5 
C 0.663008 2.5 1.29895 2.236584 1.767767 1.767767 
C 2.236584 1.29895 2.5 0.663008 2.5 0 
C 2.5 -0.663008 2.236584 -1.29895 1.767767 -1.767767 
C 1.29895 -2.236584 0.663008 -2.5 0 -2.5 
C -0.663008 -2.5 -1.29895 -2.236584 -1.767767 -1.767767 
C -2.236584 -1.29895 -2.5 -0.663008 -2.5 0 
C -2.5 0.663008 -2.236584 1.29895 -1.767767 1.767767 
C -1.29895 2.236584 -0.663008 2.5 0 2.5 
z
" id="Ce_0_61a04e8436"/>
    </defs>
    <g clip-path="url(#p434bc5c217)">
     <use style="fill:#1f77b4;" x="184.840261" xlink:href="#Ce_0_61a04e8436" y="274.747676"/>
    </g>
    <g clip-path="url(#p434bc5c217)">
     <use style="fill:#1f77b4;" x="184.840261" xlink:href="#Ce_0_61a04e8436" y="265.822607"/>
    </g>
    <g clip-path="url(#p434bc5c217)">
     <use style="fill:#1f77b4;" x="180.354721" xlink:href="#Ce_0_61a04e8436" y="265.191939"/>
    </g>
    <g clip-path="url(#p434bc5c217)">
     <use style="fill:#1f77b4;" x="189.086422" xlink:href="#Ce_0_61a04e8436" y="264.38446"/>
    </g>
   </g>
   <g id="PathCollection_22">
    <defs>
     <path d="M 0 2.5 
C 0.663008 2.5 1.29895 2.236584 1.767767 1.767767 
C 2.236584 1.29895 2.5 0.663008 2.5 0 
C 2.5 -0.663008 2.236584 -1.29895 1.767767 -1.767767 
C 1.29895 -2.236584 0.663008 -2.5 0 -2.5 
C -0.663008 -2.5 -1.29895 -2.236584 -1.767767 -1.767767 
C -2.236584 -1.29895 -2.5 -0.663008 -2.5 0 
C -2.5 0.663008 -2.236584 1.29895 -1.767767 1.767767 
C -1.29895 2.236584 -0.663008 2.5 0 2.5 
z
" id="Cf_0_c33979ae03"/>
    </defs>
    <g clip-path="url(#p434bc5c217)">
     <use style="fill:#ff7f0e;" x="223.448969" xlink:href="#Cf_0_c33979ae03" y="248.088465"/>
    </g>
    <g clip-path="url(#p434bc5c217)">
     <use style="fill:#ff7f0e;" x="218.956531" xlink:href="#Cf_0_c33979ae03" y="247.49834"/>
    </g>
    <g clip-path="url(#p434bc5c217)">
     <use style="fill:#ff7f0e;" x="227.699882" xlink:href="#Cf_0_c33979ae03" y="246.66158"/>
    </g>
    <g clip-path="url(#p434bc5c217)">
     <use style="fill:#ff7f0e;" x="214.839335" xlink:href="#Cf_0_c33979ae03" y="245.786529"/>
    </g>
   </g>
   <g id="PathCollection_23">
    <defs>
     <path d="M 0 2.5 
C 0.663008 2.5 1.29895 2.236584 1.767767 1.767767 
C 2.236584 1.29895 2.5 0.663008 2.5 0 
C 2.5 -0.663008 2.236584 -1.29895 1.767767 -1.767767 
C 1.29895 -2.236584 0.663008 -2.5 0 -2.5 
C -0.663008 -2.5 -1.29895 -2.236584 -1.767767 -1.767767 
C -2.236584 -1.29895 -2.5 -0.663008 -2.5 0 
C -2.5 0.663008 -2.236584 1.29895 -1.767767 1.767767 
C -1.29895 2.236584 -0.663008 2.5 0 2.5 
z
" id="C10_0_5717835150"/>
    </defs>
    <g clip-path="url(#p434bc5c217)">
     <use style="fill:#1f77b4;" x="281.362031" xlink:href="#C10_0_5717835150" y="271.666416"/>
    </g>
    <g clip-path="url(#p434bc5c217)">
     <use style="fill:#1f77b4;" x="278.752903" xlink:href="#C10_0_5717835150" y="268.34415"/>
    </g>
    <g clip-path="url(#p434bc5c217)">
     <use style="fill:#1f77b4;" x="283.196328" xlink:href="#C10_0_5717835150" y="267.508516"/>
    </g>
    <g clip-path="url(#p434bc5c217)">
     <use style="fill:#1f77b4;" x="287.73577" xlink:href="#C10_0_5717835150" y="267.413916"/>
    </g>
   </g>
   <g id="PathCollection_24">
    <defs>
     <path d="M 0 2.5 
C 0.663008 2.5 1.29895 2.236584 1.767767 1.767767 
C 2.236584 1.29895 2.5 0.663008 2.5 0 
C 2.5 -0.663008 2.236584 -1.29895 1.767767 -1.767767 
C 1.29895 -2.236584 0.663008 -2.5 0 -2.5 
C -0.663008 -2.5 -1.29895 -2.236584 -1.767767 -1.767767 
C -2.236584 -1.29895 -2.5 -0.663008 -2.5 0 
C -2.5 0.663008 -2.236584 1.29895 -1.767767 1.767767 
C -1.29895 2.236584 -0.663008 2.5 0 2.5 
z
" id="C11_0_c24dd4c1ce"/>
    </defs>
    <g clip-path="url(#p434bc5c217)">
     <use style="fill:#ff7f0e;" x="319.970739" xlink:href="#C11_0_c24dd4c1ce" y="252.940099"/>
    </g>
    <g clip-path="url(#p434bc5c217)">
     <use style="fill:#ff7f0e;" x="317.579179" xlink:href="#C11_0_c24dd4c1ce" y="249.489447"/>
    </g>
    <g clip-path="url(#p434bc5c217)">
     <use style="fill:#ff7f0e;" x="321.431529" xlink:href="#C11_0_c24dd4c1ce" y="247.340673"/>
    </g>
    <g clip-path="url(#p434bc5c217)">
     <use style="fill:#ff7f0e;" x="314.867274" xlink:href="#C11_0_c24dd4c1ce" y="246.233627"/>
    </g>
   </g>
   <g id="PathCollection_25">
    <defs>
     <path d="M 0 2.5 
C 0.663008 2.5 1.29895 2.236584 1.767767 1.767767 
C 2.236584 1.29895 2.5 0.663008 2.5 0 
C 2.5 -0.663008 2.236584 -1.29895 1.767767 -1.767767 
C 1.29895 -2.236584 0.663008 -2.5 0 -2.5 
C -0.663008 -2.5 -1.29895 -2.236584 -1.767767 -1.767767 
C -2.236584 -1.29895 -2.5 -0.663008 -2.5 0 
C -2.5 0.663008 -2.236584 1.29895 -1.767767 1.767767 
C -1.29895 2.236584 -0.663008 2.5 0 2.5 
z
" id="C12_0_93e785a0a9"/>
    </defs>
    <g clip-path="url(#p434bc5c217)">
     <use style="fill:#1f77b4;" x="377.883801" xlink:href="#C12_0_93e785a0a9" y="268.045709"/>
    </g>
    <g clip-path="url(#p434bc5c217)">
     <use style="fill:#1f77b4;" x="377.883801" xlink:href="#C12_0_93e785a0a9" y="254.423293"/>
    </g>
    <g clip-path="url(#p434bc5c217)">
     <use style="fill:#1f77b4;" x="373.374205" xlink:href="#C12_0_93e785a0a9" y="253.949167"/>
    </g>
    <g clip-path="url(#p434bc5c217)">
     <use style="fill:#1f77b4;" x="382.291789" xlink:href="#C12_0_93e785a0a9" y="253.449138"/>
    </g>
   </g>
   <g id="PathCollection_26">
    <defs>
     <path d="M 0 2.5 
C 0.663008 2.5 1.29895 2.236584 1.767767 1.767767 
C 2.236584 1.29895 2.5 0.663008 2.5 0 
C 2.5 -0.663008 2.236584 -1.29895 1.767767 -1.767767 
C 1.29895 -2.236584 0.663008 -2.5 0 -2.5 
C -0.663008 -2.5 -1.29895 -2.236584 -1.767767 -1.767767 
C -2.236584 -1.29895 -2.5 -0.663008 -2.5 0 
C -2.5 0.663008 -2.236584 1.29895 -1.767767 1.767767 
C -1.29895 2.236584 -0.663008 2.5 0 2.5 
z
" id="C13_0_577832ee75"/>
    </defs>
    <g clip-path="url(#p434bc5c217)">
     <use style="fill:#ff7f0e;" x="416.49251" xlink:href="#C13_0_577832ee75" y="247.401488"/>
    </g>
    <g clip-path="url(#p434bc5c217)">
     <use style="fill:#ff7f0e;" x="412.059424" xlink:href="#C13_0_577832ee75" y="246.523058"/>
    </g>
    <g clip-path="url(#p434bc5c217)">
     <use style="fill:#ff7f0e;" x="420.902049" xlink:href="#C13_0_577832ee75" y="246.432963"/>
    </g>
    <g clip-path="url(#p434bc5c217)">
     <use style="fill:#ff7f0e;" x="425.356276" xlink:href="#C13_0_577832ee75" y="245.644629"/>
    </g>
   </g>
   <g id="text_31">
    <!-- Controls -->
    <g transform="translate(227.461438 231.886136)scale(0.12 -0.12)">
     <use xlink:href="#DejaVuSans-67"/>
     <use x="69.824219" xlink:href="#DejaVuSans-111"/>
     <use x="131.005859" xlink:href="#DejaVuSans-110"/>
     <use x="194.384766" xlink:href="#DejaVuSans-116"/>
     <use x="233.59375" xlink:href="#DejaVuSans-114"/>
     <use x="274.675781" xlink:href="#DejaVuSans-111"/>
     <use x="335.857422" xlink:href="#DejaVuSans-108"/>
     <use x="363.640625" xlink:href="#DejaVuSans-115"/>
    </g>
   </g>
   <g id="legend_2">
    <g id="patch_33">
     <path d="M 513.67336 283.902359 
L 552.03586 283.902359 
Q 554.03586 283.902359 554.03586 281.902359 
L 554.03586 238.867984 
Q 554.03586 236.867984 552.03586 236.867984 
L 513.67336 236.867984 
Q 511.67336 236.867984 511.67336 238.867984 
L 511.67336 281.902359 
Q 511.67336 283.902359 513.67336 283.902359 
z
" style="fill:#ffffff;opacity:0.8;stroke:#cccccc;stroke-linejoin:miter;"/>
    </g>
    <g id="text_32">
     <!-- Day -->
     <g transform="translate(522.981172 248.466422)scale(0.1 -0.1)">
      <use xlink:href="#DejaVuSans-68"/>
      <use x="77.001953" xlink:href="#DejaVuSans-97"/>
      <use x="138.28125" xlink:href="#DejaVuSans-121"/>
     </g>
    </g>
    <g id="PathCollection_27">
     <g>
      <use style="fill:#1f77b4;stroke:#1f77b4;" x="525.67336" xlink:href="#m50bdfca731" y="260.519547"/>
     </g>
    </g>
    <g id="text_33">
     <!-- 1 -->
     <g transform="translate(543.67336 263.144547)scale(0.1 -0.1)">
      <use xlink:href="#DejaVuSans-49"/>
     </g>
    </g>
    <g id="PathCollection_28">
     <g>
      <use style="fill:#ff7f0e;stroke:#ff7f0e;" x="525.67336" xlink:href="#m1687d097d7" y="275.197672"/>
     </g>
    </g>
    <g id="text_34">
     <!-- 2 -->
     <g transform="translate(543.67336 277.822672)scale(0.1 -0.1)">
      <use xlink:href="#DejaVuSans-50"/>
     </g>
    </g>
   </g>
  </g>
 </g>
 <defs>
  <clipPath id="p9e98983d62">
   <rect height="120.36303" width="403.461" x="50.675" y="26.8"/>
  </clipPath>
  <clipPath id="p434bc5c217">
   <rect height="120.36303" width="403.461" x="50.675" y="237.886136"/>
  </clipPath>
 </defs>
</svg>
